<?xml version="1.0" encoding="utf-8"?>
<!-- Generator: Adobe Illustrator 19.2.0, SVG Export Plug-In . SVG Version: 6.00 Build 0)  -->
<svg version="1.1" id="Capa_1" xmlns="http://www.w3.org/2000/svg" xmlns:xlink="http://www.w3.org/1999/xlink" x="0px" y="0px"
	 viewBox="0 0 120 87.6" style="enable-background:new 0 0 120 87.6;" xml:space="preserve">
<style type="text/css">
	.st0{fill:#F8CE11;}
	.st1{fill:#818181;}
	.st2{fill:#FFFFFF;}
	.st3{fill:#6B1133;}
</style>
<rect x="69" y="18.3" class="st0" width="38.1" height="33.3"/>
<rect x="78.9" y="7.6" class="st1" width="18.3" height="56"/>
<rect x="56" y="27.6" class="st1" width="64" height="16"/>
<path class="st2" d="M88,43.2c4.8,0,8.7-3.4,8.7-7.6c0-4.2-3.9-7.6-8.7-7.6s-8.7,3.4-8.7,7.6C79.3,39.8,83.2,43.2,88,43.2"/>
<rect x="29.5" y="5.4" class="st1" width="21.1" height="21.2"/>
<rect x="35.5" class="st0" width="9.1" height="32"/>
<rect x="24.2" y="11.4" class="st0" width="31.8" height="9.1"/>
<path class="st2" d="M40.1,20.1c2.3,0,4.2-1.9,4.2-4.2c0-2.3-1.9-4.2-4.2-4.2c-2.3,0-4.2,1.9-4.2,4.2C35.9,18.2,37.8,20.1,40.1,20.1
	"/>
<rect x="45.4" y="61" class="st3" width="21.2" height="21.2"/>
<rect x="51.4" y="55.6" class="st0" width="9.1" height="32"/>
<rect x="40" y="67.1" class="st0" width="32" height="9.1"/>
<path class="st2" d="M56,75.8c2.3,0,4.2-1.9,4.2-4.2s-1.9-4.2-4.2-4.2s-4.2,1.9-4.2,4.2S53.7,75.8,56,75.8"/>
<rect x="5.4" y="45" class="st0" width="21.2" height="21.2"/>
<rect x="11.4" y="39.6" class="st3" width="9.1" height="32"/>
<rect y="51.1" class="st3" width="32" height="9.1"/>
<path class="st2" d="M16,59.7c2.3,0,4.2-1.9,4.2-4.2s-1.9-4.2-4.2-4.2s-4.2,1.9-4.2,4.2S13.7,59.7,16,59.7"/>
</svg>
