<?xml version="1.0" encoding="utf-8"?>
<!-- Generator: Adobe Illustrator 22.0.1, SVG Export Plug-In . SVG Version: 6.00 Build 0)  -->
<svg version="1.1" id="Layer_1" xmlns="http://www.w3.org/2000/svg" xmlns:xlink="http://www.w3.org/1999/xlink" x="0px" y="0px"
	 viewBox="0 0 451 124.5" style="enable-background:new 0 0 451 124.5;" xml:space="preserve">
<style type="text/css">
	.st0{clip-path:url(#SVGID_2_);fill:#FACE00;}
	.st1{clip-path:url(#SVGID_2_);fill:#6B1233;}
</style>
<g>
	<defs>
		<rect id="SVGID_1_" width="451" height="124.5"/>
	</defs>
	<clipPath id="SVGID_2_">
		<use xlink:href="#SVGID_1_"  style="overflow:visible;"/>
	</clipPath>
	<path class="st0" d="M255.9,78.2c42.6,0,84.3-7.3,123.8-21.7c38.2-13.9,73.3-34,104.4-59.7l-0.5-1.1
		c-63.2,52.4-144.1,81.2-227.6,81.2c-27,0-82.7-8.5-141.4-27.2C66.3,34.3,0.6,7.1-38.5-35.2l-0.6,1C0.1,8.3,66,35.6,114.3,51
		C173,69.7,228.9,78.2,255.9,78.2"/>
	<path class="st1" d="M290.3,55.4c35.8,0,70.9-5.8,104.3-17.1c32.3-11,62.4-27,89.4-47.5l-0.5-1.2C428,31.8,361.2,54.1,290.3,54.1
		c-66.4,0-161.1-27.6-222.9-89.3l-0.6,1.1c28,27.9,65.1,51.1,107.5,67.1C212.5,47.4,253.7,55.4,290.3,55.4"/>
	<path class="st1" d="M483,126.2c0.1,0,0.3,0,0.4,0c0.1,0,0.3,0,0.4,0v-1.3c-0.1,0-0.3,0-0.4,0c-0.1,0-0.3,0-0.4,0
		c-149.7,0-339.1-71.8-422.2-160.1l-0.6,1c41.4,44,108.9,84.8,190.2,115c38.6,14.3,78.3,25.6,118.1,33.4
		C408.9,122.2,447.5,126.2,483,126.2"/>
</g>
</svg>
