<?xml version="1.0" encoding="utf-8"?>
<!-- Generator: Adobe Illustrator 19.2.0, SVG Export Plug-In . SVG Version: 6.00 Build 0)  -->
<svg version="1.1" id="Capa_1" xmlns="http://www.w3.org/2000/svg" xmlns:xlink="http://www.w3.org/1999/xlink" x="0px" y="0px"
	 viewBox="0 0 72 72" style="enable-background:new 0 0 72 72;" xml:space="preserve">
<style type="text/css">
	.st0{fill:#F8CE11;}
	.st1{fill:#FFFFFF;}
</style>
<path class="st0" d="M36,72c19.9,0,36-16.1,36-36C72,16.1,55.9,0,36,0C16.1,0,0,16.1,0,36C0,55.9,16.1,72,36,72"/>
<path class="st1" d="M55.1,56L55.1,56c-0.5,0-0.9-0.5-0.9-1.1V17.1c0-0.6,0.4-1.1,0.9-1.1c0.5,0,0.9,0.5,0.9,1.1v37.8
	C56,55.5,55.6,56,55.1,56"/>
<path class="st1" d="M41.9,49.5c0,0.7-0.4,1.2-1,1.2H26.7c-0.5,0-1-0.6-1-1.2V43l16.2,6V49.5z M53.2,18.9l-36,13.3v-1.3
	c0-0.4-0.3-0.8-0.6-0.8c-0.3,0-0.6,0.3-0.6,0.8v10.3c0,0.4,0.3,0.8,0.6,0.8c0.3,0,0.6-0.4,0.6-0.8v-1.3l6.5,2.4c0,0,0,0.1,0,0.1v7.2
	c0,2.1,1.3,3.8,2.9,3.8H41c1.6,0,2.9-1.6,2.9-3.6l9.3,3.4V18.9z"/>
</svg>
