<?xml version="1.0" encoding="utf-8"?>
<!-- Generator: Adobe Illustrator 19.2.0, SVG Export Plug-In . SVG Version: 6.00 Build 0)  -->
<svg version="1.1" id="Capa_1" xmlns="http://www.w3.org/2000/svg" xmlns:xlink="http://www.w3.org/1999/xlink" x="0px" y="0px"
	 viewBox="0 0 72 72" style="enable-background:new 0 0 72 72;" xml:space="preserve">
<style type="text/css">
	.st0{fill:#199A99;}
	.st1{fill:#FFFFFF;}
</style>
<g>
	<path class="st0" d="M36,72c19.9,0,36-16.1,36-36C72,16.1,55.9,0,36,0C16.1,0,0,16.1,0,36C0,55.9,16.1,72,36,72"/>
</g>
<g>
	<path class="st1" d="M24.7,64c-0.1-1.7-0.2-3.5-0.3-5.2c-0.1-1.3-1.1-2.1-2-2.8c-2.5-1.7-5-3.4-7.5-5.1c-0.8-0.6-1.8-1-2.5-1.7
		C9.7,47.2,8,44.6,8.1,41c0.1-3.7-0.3-7.5,0.1-11.2c0.4-4.1,1.3-8.2,2.1-12.2c0.2-1.1,1.4-1.7,2.4-1.5c1.1,0.2,1.8,1.1,1.7,2.3
		c-0.2,2.4-0.4,4.7-0.6,7.1c-0.1,1.5,0,3,0,4.6c0,0.8-0.4,1.7-0.4,2.5c-0.1,1-0.3,2.1,0,3.1c0.8,2.2,1.6,4.5,2.8,6.5
		c0.8,1.4,2.3,2.3,3.7,3.7c-1.8-3.7-3.4-7.1-5-10.5c-0.2-0.5-0.5-1.2-0.3-1.7c0.3-0.7,0.9-1.4,1.5-1.6c0.8-0.4,1.7,0,2.3,0.8
		c0.8,1.1,1.6,2.3,2.4,3.4c2.6,3.5,5.9,6.3,9.3,9.1c0.6,0.5,1.1,0.9,1.6,1.4c2.1,1.8,3.2,4.1,3.4,7c0.2,3.5,0.6,6.9,0.9,10.4H24.7z"
		/>
	<path class="st1" d="M47.3,64c0.1-1.7,0.2-3.5,0.3-5.2c0.1-1.3,1.1-2.1,2-2.8c2.5-1.7,5-3.4,7.5-5.1c0.8-0.6,1.8-1,2.5-1.7
		c2.6-2.1,4.3-4.8,4.2-8.4c-0.1-3.7,0.3-7.5-0.1-11.2c-0.4-4.1-1.3-8.2-2.1-12.2c-0.2-1.1-1.4-1.7-2.4-1.5c-1.1,0.2-1.8,1.1-1.7,2.3
		c0.2,2.4,0.4,4.7,0.6,7.1c0.1,1.5,0,3,0,4.6c0,0.8,0.4,1.7,0.4,2.5c0.1,1,0.3,2.1,0,3.1C57.8,37.8,57,40,55.8,42
		c-0.8,1.4-2.3,2.3-3.7,3.7c1.8-3.7,3.4-7.1,5-10.5c0.2-0.5,0.5-1.2,0.3-1.7C57.2,33,56.6,32.3,56,32c-0.8-0.4-1.7,0-2.3,0.8
		c-0.8,1.1-1.6,2.3-2.4,3.4c-2.6,3.5-5.9,6.3-9.3,9.1c-0.6,0.5-1.1,0.9-1.6,1.4c-2.1,1.8-3.2,4.1-3.4,7c-0.2,3.5-0.6,6.9-0.9,10.4
		H47.3z"/>
	<path class="st1" d="M46.5,23.3c0-2.7-1.7-5.1-4-5.6c-2.2-0.5-4.6,0.8-5.5,3.2C36.7,21.4,36.6,22,36,22c-0.6,0-0.7-0.6-0.9-1.1
		c-1-2.4-3.3-3.7-5.5-3.2c-2.2,0.5-4,2.8-4,5.3c-0.1,2,0.7,3.7,1.7,5.3c2.3,3.8,5.3,6.7,8.5,9.5c0.3,0.2,0.4,0,0.6-0.1
		c1.5-1.3,3-2.7,4.4-4.2c1.8-1.9,3.4-3.9,4.6-6.3C46,26.1,46.5,24.8,46.5,23.3 M48,23.2c-0.1,2-0.7,3.7-1.5,5.3
		c-1.3,2.5-3.1,4.7-5,6.7c-1.5,1.6-3.2,3.1-4.9,4.5c-0.4,0.3-0.8,0.4-1.2,0.1c-3.5-2.9-6.8-6.2-9.3-10.2c-1-1.6-1.8-3.4-2.1-5.4
		c-0.5-3.6,2-7.4,5.3-8c2.6-0.5,4.8,0.5,6.4,2.7c0.2,0.3,0.3,0.4,0.6,0c1.7-2.4,4.2-3.4,6.7-2.7c2.8,0.9,4.4,2.9,4.9,6
		C48,22.6,48,23,48,23.2"/>
</g>
</svg>
