<?xml version="1.0" encoding="utf-8"?>
<!-- Generator: Adobe Illustrator 19.2.0, SVG Export Plug-In . SVG Version: 6.00 Build 0)  -->
<svg version="1.1" id="Capa_1" xmlns="http://www.w3.org/2000/svg" xmlns:xlink="http://www.w3.org/1999/xlink" x="0px" y="0px"
	 viewBox="0 0 69.9 52.1" style="enable-background:new 0 0 69.9 52.1;" xml:space="preserve">
<style type="text/css">
	.st0{fill:#B4B4B4;}
</style>
<path class="st0" d="M69.9,16.3l-12.1,3c-1.5,0.4-3.2,0.1-4.5-0.7l-12.4-7.7c-1.2-0.7-1.5-2.3-0.6-3.4c0.7-1,2-1.2,3.1-0.6l5,3
	c0.4,0.2,0.9,0.2,1.2-0.1c0.4-0.4,0.4-1.2-0.2-1.5l-7-4.3l-0.5,0c-2.5,0.2-4.6,1.9-5.4,4.3l0,0l-12.5,2.6c-1.7,0.4-3.3-0.7-3.7-2.4
	c-0.3-1.7,0.7-3.3,2.4-3.7l21.3-4.7c1.3-0.3,2.6-0.1,3.7,0.5L61,7.9l6.8-2.1L69.9,16.3z"/>
<path class="st0" d="M0,35.8l12.1-3c1.5-0.4,3.2-0.1,4.5,0.7L29,41.2c1.2,0.7,1.5,2.3,0.6,3.4c-0.7,1-2,1.2-3.1,0.6l-5-3
	c-0.4-0.2-0.9-0.2-1.2,0.1c-0.4,0.4-0.4,1.2,0.2,1.5l7,4.3l0.5,0c2.5-0.2,4.6-1.9,5.4-4.3l0,0L46,41.2c1.7-0.4,3.3,0.7,3.7,2.4
	c0.3,1.7-0.7,3.3-2.4,3.7L26.1,52c-1.3,0.3-2.6,0.1-3.7-0.5L8.9,44.2l-6.8,2.1L0,35.8z"/>
<path class="st0" d="M42.7,17c-2.4-0.9-5.4-0.1-8,1.8c-2.4-1.7-5.2-2.4-7.6-1.6c-4.2,1.5-5.6,7.1-3,12.6c1.9,4,5.3,6.9,8.7,7.5
	c0.1,0,0.1,0,0.2,0.1c0.1,0,0.2,0,0.2,0c0.2,0,0.4,0.1,0.6,0.1c0.1,0,0.3,0,0.4,0c0.1,0,0.3,0,0.4,0c0.2,0,0.4,0,0.6-0.1
	c0.1,0,0.2,0,0.3,0c0,0,0.1,0,0.1,0c3.5-0.7,7.2-3.5,9.3-7.6C47.9,24.2,46.9,18.5,42.7,17"/>
</svg>
