<?xml version="1.0" encoding="utf-8"?>
<!-- Generator: Adobe Illustrator 19.2.0, SVG Export Plug-In . SVG Version: 6.00 Build 0)  -->
<svg version="1.1" id="Capa_1" xmlns="http://www.w3.org/2000/svg" xmlns:xlink="http://www.w3.org/1999/xlink" x="0px" y="0px"
	 viewBox="0 0 48 48" style="enable-background:new 0 0 48 48;" xml:space="preserve">
<style type="text/css">
	.st0{fill:none;stroke:#818181;}
	.st1{fill:#818181;}
</style>
<rect x="0.5" y="0.5" class="st0" width="47" height="47"/>
<path class="st1" d="M27.5,31.6c3.8-3.5,4.2-3.3,8,0.3c1.3,1.2,3.1,2.6,2.1,4.7c-1.1,2.2-3.2,3.6-5.7,3.5c-2.3-0.1-4.8-0.6-6.9-1.5
	c-6.7-3-11.7-7.9-15.3-14.1c-2-3.5-2.6-7.3-0.1-11c1.9-2.8,3.5-2.9,5.9-0.5c0.8,0.7,1.5,1.5,2.2,2.2c2.6,2.5,2.5,2.9,0.2,5.7
	c-0.5,0.5-0.7,1.8-0.4,2.3C19.7,27.1,26,33,27.5,31.6"/>
<path class="st1" d="M38.5,26.6c-0.8,0-1.4-0.6-1.5-1.4c-1-14.3-14.4-14.5-15-14.5c-0.8,0-1.5-0.7-1.5-1.5c0-0.8,0.7-1.4,1.5-1.4
	c0.2,0,16.9,0.2,18,17.2C40,25.9,39.4,26.6,38.5,26.6C38.6,26.6,38.5,26.6,38.5,26.6"/>
<path class="st1" d="M32.8,25.9c-0.8,0-1.4-0.6-1.5-1.4c-0.5-7-7-7.1-7.3-7.1c-0.8,0-1.5-0.7-1.5-1.5c0-0.8,0.7-1.5,1.5-1.5
	c3.3,0,9.8,2.1,10.3,9.8C34.3,25.2,33.7,25.9,32.8,25.9C32.8,25.9,32.8,25.9,32.8,25.9"/>
</svg>
