<?xml version="1.0" encoding="utf-8"?>
<!-- Generator: Adobe Illustrator 19.2.0, SVG Export Plug-In . SVG Version: 6.00 Build 0)  -->
<svg version="1.1" id="Capa_1" xmlns="http://www.w3.org/2000/svg" xmlns:xlink="http://www.w3.org/1999/xlink" x="0px" y="0px"
	 viewBox="0 0 88 72" style="enable-background:new 0 0 88 72;" xml:space="preserve">
<style type="text/css">
	.st0{fill:#F8CE11;}
	.st1{fill:#D3D6D6;}
</style>
<g>
	<path class="st0" d="M81.7,32.7l-7.2,2.5c-1.1,0.4-2.3-0.3-2.6-1.4L62.9,5.3c-0.4-1.1,0.2-2.4,1.3-2.8l7.2-2.5
		c1.1-0.4,2.3,0.3,2.6,1.4L83.1,30C83.4,31.1,82.8,32.4,81.7,32.7"/>
	<path class="st0" d="M69.6,30.7l-9.2,3.1c-1.1,0.4-2.3-0.3-2.6-1.4l-5.4-17.3c-0.4-1.1,0.2-2.4,1.3-2.8l9.2-3.1L69.6,30.7z"/>
	<path class="st1" d="M75.5,1.4c3.8-1.3,8.8,3.9,11.2,11.6c2.4,7.7,1.3,14.9-2.5,16.2L75.5,1.4z"/>
	<path class="st1" d="M36.9,38.6c1,3.1-0.7,6.4-3.6,7.4c-3,1-6.2-0.7-7.1-3.8c-1-3.1,0.7-6.4,3.6-7.4C32.7,33.8,35.9,35.5,36.9,38.6
		"/>
	<path class="st0" d="M1.4,33.4c-1.1,0.4-1.7,1.6-1.3,2.8l3.6,11.5c0.4,1.1,1.5,1.8,2.6,1.4l18.1-6.2c-1.3-4.1,0.9-8.4,4.8-9.8
		c3.9-1.3,8.1,0.9,9.4,4.9l17.2-5.9l-4.9-15.6L1.4,33.4z"/>
	<path class="st1" d="M35.7,46.6c-0.6,0.4-1.2,0.8-1.9,1c-2.1,0.7-4.3,0.4-6-0.7l-7,25.1H27l4.8-23.7L36.3,72h6.2L35.7,46.6z"/>
</g>
</svg>
