<?xml version="1.0" encoding="utf-8"?>
<!-- Generator: Adobe Illustrator 19.2.0, SVG Export Plug-In . SVG Version: 6.00 Build 0)  -->
<svg version="1.1" id="Capa_1" xmlns="http://www.w3.org/2000/svg" xmlns:xlink="http://www.w3.org/1999/xlink" x="0px" y="0px"
	 viewBox="0 0 48.3 48" style="enable-background:new 0 0 48.3 48;" xml:space="preserve">
<style type="text/css">
	.st0{fill:#6B1233;}
	.st1{fill:none;stroke:#6B1233;}
</style>
<line class="st0" x1="46.9" y1="0" x2="46.9" y2="48"/>
<rect x="0.5" y="0.5" class="st1" width="47.3" height="47"/>
<path class="st0" d="M34.1,12.9H13.9c3.7,4,6.8,7.5,10.1,11.1C27.3,20.4,30.5,16.9,34.1,12.9 M11.5,35.2h25V16.4
	c-3.2,3.5-6,6.6-8.8,9.6c-3.3,3.6-4.1,3.6-7.3,0c-2.8-3.1-5.7-6.3-8.9-9.7V35.2z M24.2,8c3.7,0,7.4-0.1,11.1,0
	c3.5,0.1,4.6,1.6,4.6,6.1c0,6.7,0,14.2,0,20.9c0,3.8-1.2,4.9-4.1,4.9c-8,0.1-16,0.1-24,0c-2.6,0-4-1.9-3.9-5.5
	c0.1-6.8,0-13.7,0-20.5c0-4.2,1.2-5.8,4.5-5.9C16.4,7.9,20.3,8,24.2,8"/>
</svg>
