<?xml version="1.0" encoding="utf-8"?>
<!-- Generator: Adobe Illustrator 19.2.0, SVG Export Plug-In . SVG Version: 6.00 Build 0)  -->
<svg version="1.1" id="Capa_1" xmlns="http://www.w3.org/2000/svg" xmlns:xlink="http://www.w3.org/1999/xlink" x="0px" y="0px"
	 viewBox="0 0 48 47.8" style="enable-background:new 0 0 48 47.8;" xml:space="preserve">
<style type="text/css">
	.st0{fill:#F8CE11;}
	.st1{fill:#FFFFFF;}
</style>
<path class="st0" d="M25.2,47.8h-2.4c0,0,0,0,0,0c0,0,0,0,0,0h-0.5c0-0.1-0.1-0.1-0.1-0.1c-1-0.1-1.9-0.2-2.8-0.4
	c-2.6-0.5-5-1.4-7.2-2.7c-2.6-1.5-4.9-3.5-6.8-5.8c-2.1-2.7-3.6-5.7-4.5-9c-0.3-1.3-0.6-2.6-0.7-4c0-0.1,0-0.2-0.1-0.2v-0.5
	c0,0,0,0,0,0c0,0,0,0,0,0v-2.4c0,0,0,0,0,0c0,0,0,0,0,0v-0.5c0.1,0,0.1-0.1,0.1-0.2c0.1-0.9,0.2-1.9,0.4-2.8
	c0.9-4.3,2.8-8.1,5.8-11.3C9.5,4.3,13.4,2,18,0.8c1.3-0.3,2.7-0.6,4-0.7c0.1,0,0.2,0,0.2-0.1h3.6c0,0.1,0.1,0.1,0.2,0.1
	c0.4,0,0.9,0.1,1.3,0.1c2,0.3,3.9,0.8,5.7,1.5c3.9,1.6,7.1,4,9.7,7.2c2.2,2.7,3.7,5.7,4.5,9c0.3,1.3,0.6,2.7,0.7,4
	c0,0.1,0,0.2,0.1,0.2v0.6c0,0,0,0,0,0c0,0,0,0,0,0v2.3c0,0,0,0,0,0c0,0,0,0,0,0v0.6c-0.1,0-0.1,0.1-0.1,0.1c0,0.2,0,0.3-0.1,0.5
	c-0.2,1.7-0.5,3.4-1.1,5c-2.5,7.2-7.4,12.3-14.6,15c0-5.3,0-10.5,0-15.8c0-0.2,0.1-0.2,0.2-0.2c1.4,0,2.9,0,4.3,0
	c0.2,0,0.3-0.1,0.3-0.3c0.1-0.7,0.1-1.4,0.2-2.1c0.1-1.1,0.2-2.3,0.4-3.4c0-0.2,0-0.2-0.2-0.2c-1.7,0-3.3,0-5,0
	c-0.2,0-0.2,0-0.2-0.2c0-0.6,0-1.2,0-1.8c0-0.6,0-1.3,0-1.9c0.1-0.8,0.5-1.2,1.3-1.4c0.3-0.1,0.6-0.1,0.9-0.1c1,0,2,0,3,0
	c0.2,0,0.2,0,0.2-0.2c0-1.9,0-3.7,0-5.6c0-0.2-0.1-0.2-0.2-0.2c-1.5,0-3,0-4.5,0c-1.1,0-2.3,0.1-3.4,0.4c-1.8,0.5-3.2,1.6-3.9,3.4
	c-0.4,1.1-0.6,2.2-0.7,3.4c0,1.3,0,2.7,0,4c0,0.2,0,0.2-0.2,0.2c-1.1,0-2.1,0-3.2,0c-0.1,0-0.2,0-0.2,0.2c0,1.9,0,3.8,0,5.6
	c0,0.2,0.1,0.2,0.2,0.2c1,0,2.1,0,3.1,0c0.4,0,0.3,0,0.3,0.3c0,5.6,0,11.2,0,16.9C25,47.7,25,47.8,25.2,47.8"/>
<path class="st1" d="M25.2,47.8c-0.2,0-0.2-0.1-0.2-0.3c0-5.6,0-11.2,0-16.9c0-0.3,0-0.3-0.3-0.3c-1,0-2.1,0-3.1,0
	c-0.2,0-0.2,0-0.2-0.2c0-1.9,0-3.8,0-5.6c0-0.2,0.1-0.2,0.2-0.2c1.1,0,2.1,0,3.2,0c0.2,0,0.2-0.1,0.2-0.2c0-1.3,0-2.7,0-4
	c0-1.2,0.2-2.3,0.7-3.4c0.7-1.8,2.1-2.9,3.9-3.4c1.1-0.3,2.3-0.4,3.4-0.4c1.5,0,3,0,4.5,0c0.2,0,0.2,0,0.2,0.2c0,1.9,0,3.7,0,5.6
	c0,0.2-0.1,0.2-0.2,0.2c-1,0-2,0-3,0c-0.3,0-0.6,0-0.9,0.1c-0.8,0.2-1.2,0.6-1.3,1.4c-0.1,0.6,0,1.3,0,1.9c0,0.6,0,1.2,0,1.8
	c0,0.2,0.1,0.2,0.2,0.2c1.7,0,3.3,0,5,0c0.2,0,0.2,0,0.2,0.2c-0.1,1.1-0.2,2.3-0.4,3.4c-0.1,0.7-0.2,1.4-0.2,2.1
	c0,0.2-0.1,0.3-0.3,0.3c-1.4,0-2.9,0-4.3,0c-0.2,0-0.2,0-0.2,0.2c0,5.3,0,10.5,0,15.8c-0.9,0.3-1.7,0.6-2.6,0.8
	c-1.2,0.3-2.4,0.5-3.7,0.6c0,0-0.1,0-0.1,0.1H25.2z"/>
<path d="M0,22.7C0,22.7,0,22.7,0,22.7C0,22.7,0,22.7,0,22.7L0,22.7z"/>
<path d="M48,22.8C48,22.7,48,22.7,48,22.8C48,22.7,48,22.7,48,22.8L48,22.8z"/>
<path d="M48,25.1C48,25.1,48,25.1,48,25.1C48,25.1,48,25.1,48,25.1L48,25.1z"/>
<path d="M0,25.1C0,25.2,0,25.2,0,25.1C0,25.2,0,25.2,0,25.1L0,25.1z"/>
<path d="M22.7,47.8C22.7,47.8,22.7,47.8,22.7,47.8C22.8,47.8,22.8,47.8,22.7,47.8L22.7,47.8z"/>
</svg>
