<?xml version="1.0" encoding="utf-8"?>
<!-- Generator: Adobe Illustrator 19.2.0, SVG Export Plug-In . SVG Version: 6.00 Build 0)  -->
<svg version="1.1" id="Capa_1" xmlns="http://www.w3.org/2000/svg" xmlns:xlink="http://www.w3.org/1999/xlink" x="0px" y="0px"
	 viewBox="0 0 48 48" style="enable-background:new 0 0 48 48;" xml:space="preserve">
<style type="text/css">
	.st0{fill:none;stroke:#818181;}
	.st1{fill:#818181;}
</style>
<rect x="0.5" y="0.5" class="st0" width="47" height="47"/>
<path class="st1" d="M24,24.7c-3.8,0-6.8-2.7-6.8-6.1c0-3.4,3.1-6.1,6.8-6.1s6.8,2.7,6.8,6.1C30.8,22,27.8,24.7,24,24.7 M24,8
	c-6.2,0-11.3,4.5-11.3,10.1c0,6,6.5,16.4,9.6,21c0.8,1.1,2.6,1.1,3.4,0c3.1-4.6,9.6-14.9,9.6-21C35.3,12.5,30.2,8,24,8"/>
</svg>
