<?xml version="1.0" encoding="utf-8"?>
<!-- Generator: Adobe Illustrator 19.2.0, SVG Export Plug-In . SVG Version: 6.00 Build 0)  -->
<svg version="1.1" id="Capa_1" xmlns="http://www.w3.org/2000/svg" xmlns:xlink="http://www.w3.org/1999/xlink" x="0px" y="0px"
	 viewBox="0 0 69.5 40.8" style="enable-background:new 0 0 69.5 40.8;" xml:space="preserve">
<style type="text/css">
	.st0{fill:#B4B4B4;}
</style>
<path class="st0" d="M40.8,34.8c0,3.3-2.7,6.1-6.1,6.1c-3.3,0-6.1-2.7-6.1-6.1c0-3.3,2.7-6.1,6.1-6.1C38.1,28.7,40.8,31.4,40.8,34.8
	"/>
<path class="st0" d="M49.1,36.7c-1.1,0-1.9-0.9-1.9-1.9c0-6.9-5.6-12.4-12.4-12.4c-6.9,0-12.4,5.6-12.4,12.4c0,1.1-0.9,1.9-1.9,1.9
	c-1.1,0-1.9-0.9-1.9-1.9c0-9,7.3-16.3,16.3-16.3c9,0,16.3,7.3,16.3,16.3C51,35.8,50.2,36.7,49.1,36.7"/>
<path class="st0" d="M58.1,36.7c-1.1,0-1.9-0.9-1.9-1.9c0-11.8-9.6-21.4-21.4-21.4C23,13.4,13.4,23,13.4,34.8c0,1.1-0.9,1.9-1.9,1.9
	s-1.9-0.9-1.9-1.9c0-13.9,11.3-25.2,25.2-25.2C48.7,9.6,60,20.9,60,34.8C60,35.8,59.1,36.7,58.1,36.7"/>
<path class="st0" d="M67.6,36.7c-1.1,0-1.9-0.9-1.9-1.9c0-17.1-13.9-30.9-30.9-30.9S3.8,17.7,3.8,34.8c0,1.1-0.9,1.9-1.9,1.9
	c-1.1,0-1.9-0.9-1.9-1.9C0,15.6,15.6,0,34.8,0c19.2,0,34.8,15.6,34.8,34.8C69.5,35.8,68.7,36.7,67.6,36.7"/>
</svg>
