<?xml version="1.0" encoding="utf-8"?>
<!-- Generator: Adobe Illustrator 19.2.0, SVG Export Plug-In . SVG Version: 6.00 Build 0)  -->
<svg version="1.1" id="Capa_1" xmlns="http://www.w3.org/2000/svg" xmlns:xlink="http://www.w3.org/1999/xlink" x="0px" y="0px"
	 viewBox="0 0 48.1 47.8" style="enable-background:new 0 0 48.1 47.8;" xml:space="preserve">
<style type="text/css">
	.st0{fill:#F8CE11;}
	.st1{fill:#FFFFFF;}
</style>
<path class="st0" d="M48.1,23.9c0,13.2-10.8,23.9-24.1,23.9S0,37.1,0,23.9S10.8,0,24.1,0S48.1,10.7,48.1,23.9"/>
<path class="st1" d="M36.1,23.9L36.1,23.9c0-0.7,0.1-1.5,0-2.2c0-1.7,0-3.4-0.2-5c-0.3-2.2-1.7-3.8-3.8-4.4
	c-1.1-0.3-2.2-0.3-3.3-0.3c-2.3,0-4.7,0-7,0c-1.7,0-3.3,0-5,0.2c-2.4,0.3-4.1,1.8-4.6,4.1c-0.2,1-0.3,2.1-0.3,3.1c0,2.3,0,4.6,0,6.9
	c0,1.6,0,3.3,0.2,4.9c0.3,2.3,1.6,3.9,3.9,4.5c1,0.3,2.1,0.3,3.2,0.3c2.9,0,5.8,0,8.6,0c1.2,0,2.5,0,3.7-0.2
	c2.2-0.4,3.7-1.6,4.2-3.8c0.3-1,0.3-2.1,0.3-3.1C36.1,27.2,36.1,25.5,36.1,23.9 M23.9,38.6c-2,0-4-0.1-6-0.1c-1.4,0-2.7-0.3-3.9-0.8
	c-2.2-1-3.6-2.7-4.3-5c-0.3-0.9-0.4-1.9-0.4-2.8c-0.1-3.6-0.1-7.2,0-10.8c0-1.2,0.1-2.5,0.4-3.7c0.5-2.1,1.7-3.8,3.6-4.9
	c1.1-0.6,2.4-1,3.6-1.1c2.6-0.2,5.2-0.2,7.8-0.2c1.7,0,3.5,0,5.2,0.1c1.4,0,2.9,0.2,4.2,0.9c2,0.9,3.3,2.4,4,4.4
	c0.3,0.9,0.5,1.8,0.5,2.8c0.2,3.8,0.1,7.6,0.1,11.4c0,1.4-0.1,2.7-0.5,4.1c-0.9,2.9-2.8,4.6-5.8,5.3c-0.8,0.2-1.7,0.3-2.5,0.3
	C28,38.6,26,38.6,23.9,38.6"/>
<path class="st1" d="M29,23.9c0-2.6-2.2-4.9-4.8-4.9c-2.7-0.1-5,2-5,4.7c-0.1,2.8,2.1,5,4.8,5.1C26.7,28.9,28.9,26.7,29,23.9
	 M31.6,23.9c0,4.2-3.4,7.5-7.6,7.5c-4.2,0-7.6-3.4-7.6-7.5c0-4.2,3.4-7.6,7.6-7.6C28.2,16.4,31.6,19.8,31.6,23.9"/>
<path class="st1" d="M33.7,16.1c0,1-0.8,1.8-1.8,1.8c-1,0-1.8-0.8-1.8-1.8c0-1,0.8-1.8,1.8-1.8C32.9,14.3,33.7,15.1,33.7,16.1"/>
</svg>
