<?xml version="1.0" encoding="utf-8"?>
<!-- Generator: Adobe Illustrator 19.2.0, SVG Export Plug-In . SVG Version: 6.00 Build 0)  -->
<svg version="1.1" id="Capa_1" xmlns="http://www.w3.org/2000/svg" xmlns:xlink="http://www.w3.org/1999/xlink" x="0px" y="0px"
	 viewBox="0 0 48 47.8" style="enable-background:new 0 0 48 47.8;" xml:space="preserve">
<style type="text/css">
	.st0{fill:#F8CE11;}
	.st1{fill:#FFFFFF;}
</style>
<path class="st0" d="M48,23.9c0,13.2-10.7,23.9-24,23.9c-13.3,0-24-10.7-24-23.9S10.7,0,24,0C37.3,0,48,10.7,48,23.9"/>
<path class="st1" d="M21.1,37.9C21.1,37.9,21.1,37.9,21.1,37.9C21,37.8,21,37.7,21,37.6c0-0.1,0-0.2,0-0.3c0-2.1,0-4.1,0-6.2
	c0-2.2,0-4.4,0-6.7c0-2.2,0-4.4,0-6.6c0-0.1,0-0.1,0-0.2c0-0.1,0.1-0.2,0.2-0.2c0,0,0.1,0,0.1,0c0.9,0,1.8,0,2.7,0
	c0.9,0,1.9,0,2.8,0c0.1,0,0.1,0,0.2,0c0.1,0,0.2,0.1,0.2,0.2c0,0.1,0,0.2,0,0.3c0,0.7,0,1.4,0,2.1c0,0,0,0,0,0.1
	c0.1,0,0.1-0.1,0.1-0.1c0.4-0.5,0.8-1,1.3-1.4c0.9-0.8,2-1.3,3.2-1.5c0.8-0.2,1.6-0.2,2.4-0.1c0.9,0.1,1.8,0.2,2.6,0.5
	c1.5,0.6,2.5,1.6,3.2,3c0.3,0.7,0.5,1.4,0.7,2.2c0.1,0.6,0.2,1.1,0.2,1.7c0,0.4,0,0.8,0.1,1.2c0,0,0,0.1,0,0.1c0,0,0,0,0,0v1.1
	c0,0.1,0,0.1,0,0.2V27c0,0,0,0,0,0c0,0,0,0,0,0v10.8c0,0-0.1,0.1-0.1,0.1h-6.3c0,0,0,0,0,0c-0.1-0.1-0.1-0.2-0.1-0.3
	c0-1,0-2.1,0-3.1c0-1.5,0-3,0-4.5c0-1,0-2,0-3.1c0-0.4,0-0.9-0.1-1.3c-0.1-0.5-0.2-1.1-0.5-1.6c-0.4-0.7-1-1.2-1.8-1.4
	c-0.6-0.1-1.3-0.1-1.9,0c-1,0.2-1.8,0.8-2.3,1.7c-0.3,0.6-0.4,1.2-0.5,1.8c-0.1,0.5-0.1,1.1-0.1,1.6c0,3.2,0,6.4,0,9.5
	c0,0.1,0,0.1,0,0.2c0,0.1,0,0.1,0,0.2c0,0.1-0.1,0.1-0.1,0.2H21.1z"/>
<path class="st1" d="M10.7,37.9C10.8,37.9,10.8,37.9,10.7,37.9c-0.1-0.1-0.1-0.2-0.1-0.3c0-0.6,0-1.2,0-1.9c0-0.1,0-0.1,0-0.2
	c0-5.9,0-11.8,0-17.8c0-0.1,0-0.1,0-0.2c0-0.1,0-0.1,0.1-0.1c0.1,0,0.1,0,0.2,0c0.8,0,1.6,0,2.4,0c1.1,0,2.3,0,3.4,0
	c0.1,0,0.1,0,0.2,0c0.1,0,0.2,0.1,0.2,0.2c0,0.1,0,0.1,0,0.2c0,6,0,12.1,0,18.1c0,0.5,0,1.1,0,1.6c0,0.1,0,0.2-0.1,0.3c0,0,0,0,0,0
	H10.7z"/>
<path class="st1" d="M14.4,7.3C14.4,7.4,14.4,7.4,14.4,7.3c0.2,0.1,0.3,0.1,0.4,0.1c1.4,0.4,2.3,1.3,2.7,2.6c0.5,2-0.6,4-2.6,4.5
	c-2.1,0.6-4.1-0.7-4.6-2.6c0-0.2-0.1-0.3-0.1-0.5c0-0.1,0-0.1,0-0.1v-0.6c0,0,0.1,0,0.1-0.1c0,0,0-0.1,0-0.1c0-0.1,0-0.2,0.1-0.3
	c0.3-1.4,1.2-2.3,2.6-2.8c0.2-0.1,0.3-0.1,0.5-0.1c0,0,0,0,0.1-0.1H14.4z"/>
<path class="st1" d="M10.1,10.7C10.2,10.7,10.2,10.6,10.1,10.7C10.2,10.7,10.2,10.7,10.1,10.7c0.1,0.1,0,0.2,0,0.2V10.7z"/>
<path class="st1" d="M40.9,26.9c0-0.1,0-0.1,0-0.2V26.9z"/>
<path class="st1" d="M40.9,37.9c0,0,0-0.1,0.1-0.1C40.9,37.8,40.9,37.9,40.9,37.9C40.9,37.9,40.9,37.9,40.9,37.9"/>
<path class="st1" d="M40.9,27C40.9,27,40.9,27,40.9,27C40.9,27,40.9,27,40.9,27L40.9,27z"/>
</svg>
