<?xml version="1.0" encoding="utf-8"?>
<!-- Generator: Adobe Illustrator 19.2.0, SVG Export Plug-In . SVG Version: 6.00 Build 0)  -->
<svg version="1.1" id="Capa_1" xmlns="http://www.w3.org/2000/svg" xmlns:xlink="http://www.w3.org/1999/xlink" x="0px" y="0px"
	 viewBox="0 0 72 72" style="enable-background:new 0 0 72 72;" xml:space="preserve">
<style type="text/css">
	.st0{fill:#6FB12B;}
	.st1{fill:#FFFFFF;}
	.st2{fill:none;stroke:#FFFFFF;stroke-miterlimit:10;}
</style>
<g>
	<path class="st0" d="M36,72c19.9,0,36-16.1,36-36C72,16.1,55.9,0,36,0C16.1,0,0,16.1,0,36C0,55.9,16.1,72,36,72"/>
</g>
<g>
	<path class="st1" d="M36,58.4c-12.4,0-22.4-10-22.4-22.2c0-12.3,10-22.2,22.4-22.2s22.4,10,22.4,22.2C58.4,48.5,48.4,58.4,36,58.4
		 M36,8.9C20.8,8.9,8.5,21.1,8.5,36.2c0,15.1,12.3,27.3,27.5,27.3c15.2,0,27.5-12.2,27.5-27.3C63.5,21.1,51.2,8.9,36,8.9"/>
	<path class="st2" d="M36,58.4c-12.4,0-22.4-10-22.4-22.2c0-12.3,10-22.2,22.4-22.2s22.4,10,22.4,22.2C58.4,48.5,48.4,58.4,36,58.4z
		 M36,8.9C20.8,8.9,8.5,21.1,8.5,36.2c0,15.1,12.3,27.3,27.5,27.3c15.2,0,27.5-12.2,27.5-27.3C63.5,21.1,51.2,8.9,36,8.9z"/>
</g>
<polygon class="st1" points="24,24 36.6,53.2 48,24 36.6,36 "/>
</svg>
