<?xml version="1.0" encoding="utf-8"?>
<!-- Generator: Adobe Illustrator 19.2.0, SVG Export Plug-In . SVG Version: 6.00 Build 0)  -->
<svg version="1.1" id="Capa_1" xmlns="http://www.w3.org/2000/svg" xmlns:xlink="http://www.w3.org/1999/xlink" x="0px" y="0px"
	 viewBox="0 0 72 72" style="enable-background:new 0 0 72 72;" xml:space="preserve">
<style type="text/css">
	.st0{fill:#4E5159;}
	.st1{fill:#FFFFFF;}
</style>
<path class="st0" d="M36,72c19.9,0,36-16.1,36-35.9S55.9,0.3,36,0.3C16.1,0.3,0,16.3,0,36.1S16.1,72,36,72"/>
<path class="st1" d="M23.5,53.1c1.3-0.4,3-1,4.7-1.6c-2.2-2.4-4.3-4.7-6.5-7c-0.5,1.8-1,3.4-1.5,5.1c-0.1,0.2,0.2,0.6,0.3,0.8
	C21.5,51.2,22.4,52,23.5,53.1 M47.9,19.8c-0.6-0.2-1-0.4-1.4-0.4c-0.3,0-0.6,0.4-0.8,0.7c-3.4,3.7-6.8,7.5-10.2,11.3
	c-2.8,3.1-5.6,6.1-8.4,9.2c-0.3,0.3-0.2,0.9-0.3,1.4c0.4-0.1,1-0.1,1.2-0.4c6.2-6.6,12.5-13.3,18.7-20C47,21.2,47.3,20.6,47.9,19.8
	 M23.4,55h1.3c10.3,0,20.5,0,30.8,0c0.3,0,0.6-0.1,0.8,0c0.3,0.2,0.6,0.6,0.6,0.9c0,0.3-0.4,0.7-0.7,0.9c-0.2,0.1-0.6,0-1,0
	c-12.2,0-24.5,0-36.7,0c-1.7,0-1.9-0.3-1.4-2.1c1.1-3.7,2.1-7.4,3.2-11.1c0.2-0.8,0.7-1.6,1.2-2.2c3.7-4.1,7.4-8.1,11.2-12.1
	c3-3.2,6.1-6.4,9.1-9.7c0.7-0.7,1.3-1.6,2-2.3c0.3-0.3,1-0.6,1.4-0.4c4.3,1.3,6.7,4.7,8.3,8.9c0.1,0.3-0.1,1-0.4,1.3
	C45.7,35.6,38,43.8,30.4,52c-0.3,0.3-0.7,0.5-1.1,0.6c-1.9,0.7-3.9,1.3-5.8,2C23.4,54.8,23.4,54.9,23.4,55"/>
</svg>
