<?xml version="1.0" encoding="utf-8"?>
<!-- Generator: Adobe Illustrator 19.2.0, SVG Export Plug-In . SVG Version: 6.00 Build 0)  -->
<svg version="1.1" id="Capa_1" xmlns="http://www.w3.org/2000/svg" xmlns:xlink="http://www.w3.org/1999/xlink" x="0px" y="0px"
	 viewBox="0 0 48 47.8" style="enable-background:new 0 0 48 47.8;" xml:space="preserve">
<style type="text/css">
	.st0{fill:#F8CE11;}
	.st1{fill:#FFFFFF;}
</style>
<path class="st0" d="M48,23.9c0,13.2-10.7,23.9-24,23.9c-13.3,0-24-10.7-24-23.9S10.7,0,24,0C37.3,0,48,10.7,48,23.9"/>
<path class="st1" d="M17.3,31.9c-3.4-0.2-5.5-2.7-5.9-4.5c0.9,0.1,1.8,0.1,2.8-0.1c-3.2-1-4.9-3.1-5.1-6.4c0.9,0.4,1.8,0.7,2.9,0.7
	c-1.4-1-2.3-2.3-2.7-3.9C8.9,16,9.1,14.5,10,13c3.5,4.1,7.9,6.4,13.3,6.7c0-0.4-0.1-0.8-0.1-1.1c-0.1-2,0.6-3.8,2.1-5.1
	c1.6-1.5,3.6-2,5.7-1.6c1.2,0.2,2.3,0.8,3.2,1.7c0.1,0.1,0.2,0.2,0.4,0.1c1.3-0.3,2.5-0.8,3.7-1.4c0,0,0.1,0,0.2-0.1
	c-0.5,1.5-1.4,2.6-2.7,3.5c0,0,0,0,0,0.1c0.4-0.1,0.8-0.1,1.2-0.2c0.4-0.1,0.8-0.2,1.2-0.3c0.4-0.1,0.8-0.3,1.2-0.4
	c-0.3,0.4-0.6,0.8-0.9,1.1c-0.6,0.8-1.4,1.4-2.1,2c-0.1,0.1-0.1,0.2-0.1,0.3c0,1.5-0.1,2.9-0.4,4.4c-0.4,1.7-0.9,3.3-1.7,4.8
	c-0.6,1.2-1.3,2.3-2.1,3.3c-1,1.2-2.1,2.3-3.4,3.2c-1.2,0.8-2.4,1.5-3.8,2.1c-1.3,0.5-2.6,0.8-3.9,1c-1.5,0.2-3,0.3-4.5,0.2
	c-1.6-0.1-3.1-0.4-4.5-0.9c-1-0.4-1.9-0.8-2.9-1.3c-0.4-0.2-0.7-0.4-1-0.6C11.4,34.8,14.5,34,17.3,31.9"/>
</svg>
