<?xml version="1.0" encoding="utf-8"?>
<!-- Generator: Adobe Illustrator 19.2.0, SVG Export Plug-In . SVG Version: 6.00 Build 0)  -->
<svg version="1.1" id="Capa_1" xmlns="http://www.w3.org/2000/svg" xmlns:xlink="http://www.w3.org/1999/xlink" x="0px" y="0px"
	 viewBox="0 0 72 72" style="enable-background:new 0 0 72 72;" xml:space="preserve">
<style type="text/css">
	.st0{fill:#6B1134;}
	.st1{fill:#FFFFFF;}
</style>
<path class="st0" d="M36,72c19.9,0,36-16.1,36-36C72,16.1,55.9,0,36,0S0,16.1,0,36C0,55.9,16.1,72,36,72"/>
<path class="st1" d="M36,33.7c0.2-0.1,0.4-0.1,0.6-0.2c0.1-1,0.1-1.9,0.2-2.9c1,0.2,2.3,0.9,3,0.5c0.8-0.4,1.1-1.7,1.6-2.6
	c-0.2-0.1-0.4-0.2-0.5-0.3c-0.3,0.7-0.6,1.4-1.1,2c-0.2,0.3-0.7,0.4-1,0.5c-0.1-0.4-0.3-0.8-0.2-1.1c0.5-1.2,1.1-2.5,1.8-3.6
	c0.2-0.4,0.9-0.7,1.2-0.6c0.4,0.1,0.8,0.8,0.7,1.2c-0.2,2.8-0.2,5.6-1.8,8.2c-0.7,1.2-0.7,2.8-1,4.3c5.3-0.9,9.5-7.1,8.9-12.5
	c-0.8-6.9-6.3-11.6-13.2-11.3c-6.5,0.2-11.8,5.6-12,12.1c-0.2,5.5,4.4,11.4,9.2,11.9c0.2-2.7,0.5-5.2-1.6-7.6
	c-2.8-3.2-2.6-3.4-0.5-7c0.2-0.4,0.7-0.9,1-0.9c1.6-0.1,3.3,0,4.9,0c0,0.1,0.1,0.3,0.1,0.4c-0.5,0.4-1,1.1-1.5,1.1
	c-1.9,0.1-2.1,1.5-2.7,2.9C35.9,28.5,36.3,30.9,36,33.7 M27.3,51.7h5.3v-4.9c-1-0.3-1.9-0.5-2.9-0.8c-9.3-3-15-12-13.5-21.6
	C17.6,15.1,25.9,8.1,35.6,8c10-0.1,18.3,6.6,20.1,16.2c1.8,9.9-4.4,19.4-14.5,22.2c-1.1,0.3-1.5,0.7-1.4,1.7c0.1,1.1,0,2.3,0,3.6
	h5.4v7.1h-5.3V64h-7.2v-5.1h-5.5V51.7z"/>
<path class="st1" d="M42.2,33c-0.2-0.5-0.7-1.1-0.5-1.4c0.6-1.5,1.3-3,2.1-4.4c0.1-0.2,0.8-0.4,1.1-0.3c0.3,0.1,0.6,0.7,0.5,1
	c-0.7,1.6-1.4,3.1-2.2,4.6C43,32.6,42.7,32.7,42.2,33"/>
<path class="st1" d="M42.4,28.5c-0.5,1-1,2-1.5,3.1c-0.6-0.3-1.1-0.5-1.6-0.7C39.4,28.8,41.7,29.8,42.4,28.5"/>
<path class="st1" d="M38.4,26.6c0.6-0.9,0.5-2.1,1.8-2c0.3,0,0.7,0.8,0.7,1.1C40.6,27.1,39.5,26.5,38.4,26.6"/>
<path class="st1" d="M43.3,27.2c-1-0.3-1.5-0.5-2-0.7c0-0.1-0.1-0.2-0.1-0.3c0.5-0.2,1-0.6,1.3-0.5C42.9,25.9,43,26.6,43.3,27.2"/>
</svg>
