<?xml version="1.0" encoding="utf-8"?>
<!-- Generator: Adobe Illustrator 19.2.0, SVG Export Plug-In . SVG Version: 6.00 Build 0)  -->
<svg version="1.1" id="Capa_1" xmlns="http://www.w3.org/2000/svg" xmlns:xlink="http://www.w3.org/1999/xlink" x="0px" y="0px"
	 viewBox="0 0 72 72" style="enable-background:new 0 0 72 72;" xml:space="preserve">
<style type="text/css">
	.st0{fill:#818181;}
	.st1{fill:#FFFFFF;}
	.st2{fill:none;stroke:#818181;}
</style>
<path class="st0" d="M36.1,72C56,72,72.1,55.9,72.1,36C72.1,16.1,56,0,36.1,0S0,16.1,0,36C0,55.9,16.1,72,36.1,72"/>
<path class="st1" d="M22.4,16c-12.6,0-8.7,17.9-8.7,17.9s-2.3,0.8-1.7,4.2c0.6,3.5,1.1,5.5-0.1,6.2c-1.2,0.7-2.3,1-3.4,1.1
	c-0.3,0-0.3,0.5,0,0.6c7.9,1.8,8.4-4.4,7.8-6.5c-0.5-1.5-0.3-3.1-0.2-3.9c1.2,2.6,3.7,4.4,6.5,4.4c3.1,0,5.7-2.1,6.8-5.1l1,0
	C30.5,34.9,35.1,16,22.4,16"/>
<path class="st1" d="M64,31.6c0-3.4-1.8-6.2-4.3-7.5c0-0.2,0-0.5,0-0.7c0-4.6-3.3-8.3-7.4-8.3c-2.1,0-4,1-5.4,2.7
	c-0.2,0-0.4,0-0.6,0c-3.8,0-6.9,3.2-7.3,7.4c-3.1,0.9-5.4,4.2-5.4,8c0,4.6,3.3,8.3,7.4,8.3c0.1,0,0.2,0,0.3,0
	c0.2,0.7,0.4,1.3,0.7,1.9c0.8,3.7,3.7,6.5,7.2,6.5c1.9,0,3.7-0.8,5-2.2c0.7,0.3,1.5,0.4,2.4,0.4c4.1,0,7.4-3.7,7.4-8.3
	c0-1.5-0.3-2.8-0.9-4C63.7,34.4,64,33,64,31.6"/>
<path class="st0" d="M51,51.4c0,0,0.6,1.7,2.4,1.7c1.8,0,2.3-1.7,2.3-1.7H51z"/>
<path class="st0" d="M24.7,44c0,0,0.6,1.7,2.4,1.7c1.8,0,2.3-1.7,2.3-1.7H24.7z"/>
<path class="st1" d="M45,49.8c0,0-1.5-19.5-11.3-19.5c-9.8,0-11.3,18.5-11.3,18.5l4.9,1h0c1.2,2.8,3.7,4.7,6.6,4.7
	c2.9,0,5.4-1.9,6.6-4.7H45z"/>
<path class="st2" d="M45,49.8c0,0-1.5-19.5-11.3-19.5c-9.8,0-11.3,18.5-11.3,18.5l4.9,1h0c1.2,2.8,3.7,4.7,6.6,4.7
	c2.9,0,5.4-1.9,6.6-4.7H45z"/>
<path class="st0" d="M35.9,56.6c0,0,0.6,1.7,2.4,1.7c1.8,0,2.3-1.7,2.3-1.7H35.9z"/>
</svg>
