<?xml version="1.0" encoding="utf-8"?>
<!-- Generator: Adobe Illustrator 19.2.0, SVG Export Plug-In . SVG Version: 6.00 Build 0)  -->
<svg version="1.1" id="Capa_1" xmlns="http://www.w3.org/2000/svg" xmlns:xlink="http://www.w3.org/1999/xlink" x="0px" y="0px"
	 viewBox="0 0 1264.6 606" style="enable-background:new 0 0 1264.6 606;" xml:space="preserve">
<style type="text/css">
	.st0{fill:#CDCDCD;}
</style>
<path class="st0" d="M57.8,341.8c0,49.4,8.8,97.6,26.1,143.3c16.7,44.2,40.9,84.9,71.9,120.9l1.4-0.6
	c-63-73.2-97.8-166.9-97.8-263.6c0-31.2,10.3-95.8,32.8-163.8c18.5-55.9,51.3-132,102.2-177.3L193.1,0
	c-51.1,45.5-84,121.8-102.5,177.7C68,245.8,57.8,310.5,57.8,341.8"/>
<path class="st0" d="M85.3,381.6c0,41.4,6.9,82.1,20.6,120.8c13.2,37.4,32.4,72.3,57.1,103.6l1.4-0.6
	c-50.7-64.3-77.5-141.7-77.5-223.8c0-76.9,33.2-186.6,107.5-258.2l-1.3-0.7c-33.6,32.4-61.5,75.4-80.8,124.5
	C94.8,291.5,85.3,339.2,85.3,381.6"/>
<path class="st0" d="M0,604.8c0,0.2,0,0.3,0,0.5c0,0.2,0,0.3,0,0.5h1.6c0-0.2,0-0.3,0-0.5c0-0.2,0-0.3,0-0.5
	c0-173.4,86.5-392.8,192.7-489l-1.2-0.7C140.1,162.9,91,241.2,54.7,335.2C37.4,380,23.9,426,14.5,472.1C4.9,519,0,563.7,0,604.8"/>
<path class="st0" d="M1206.9,341.8c0,49.4-8.8,97.6-26.1,143.3c-16.7,44.2-40.9,84.9-71.9,120.9l-1.4-0.6
	c63-73.2,97.8-166.9,97.8-263.6c0-31.2-10.3-95.8-32.8-163.8c-18.5-55.9-51.3-132-102.2-177.3l1.2-0.7
	c51.1,45.5,84,121.8,102.5,177.7C1196.6,245.8,1206.9,310.5,1206.9,341.8"/>
<path class="st0" d="M1179.3,381.6c0,41.4-6.9,82.1-20.6,120.8c-13.2,37.4-32.4,72.3-57.1,103.6l-1.4-0.6
	c50.7-64.3,77.5-141.7,77.5-223.8c0-76.9-33.2-186.6-107.5-258.2l1.3-0.7c33.6,32.4,61.5,75.4,80.8,124.5
	C1169.8,291.5,1179.3,339.2,1179.3,381.6"/>
<path class="st0" d="M1264.6,604.8c0,0.2,0,0.3,0,0.5c0,0.2,0,0.3,0,0.5h-1.6c0-0.2,0-0.3,0-0.5c0-0.2,0-0.3,0-0.5
	c0-173.4-86.5-392.8-192.7-489l1.2-0.7c53,47.9,102.1,126.2,138.4,220.3c17.2,44.7,30.8,90.7,40.2,136.8
	C1259.7,519,1264.6,563.7,1264.6,604.8"/>
</svg>
