<?xml version="1.0" encoding="utf-8"?>
<!-- Generator: Adobe Illustrator 19.2.0, SVG Export Plug-In . SVG Version: 6.00 Build 0)  -->
<svg version="1.1" id="Capa_1" xmlns="http://www.w3.org/2000/svg" xmlns:xlink="http://www.w3.org/1999/xlink" x="0px" y="0px"
	 viewBox="0 0 967.2 321.8" style="enable-background:new 0 0 967.2 321.8;" xml:space="preserve">
<style type="text/css">
	.st0{fill:#F8CE11;}
	.st1{fill:#6B1133;}
	.st2{fill:none;}
</style>
<path class="st0" d="M21.4,178.5c0,25.7,2.5,50.8,7.5,74.7c4.8,23,11.8,44.2,20.7,63l0.4-0.3c-18.1-38.2-28.1-86.9-28.1-137.3
	c0-16.3,2.9-49.9,9.4-85.3c5.3-29.1,14.7-68.7,29.4-92.4l-0.4-0.4C45.6,24.1,36.2,63.9,30.9,93C24.4,128.5,21.4,162.2,21.4,178.5"/>
<path class="st1" d="M19.7,178.1c0,28.5,5.4,56.5,16.2,83.1c10.4,25.7,25.5,49.7,44.8,71.3l1.1-0.4C42,287.8,20.9,234.6,20.9,178.1
	c0-52.9,26.1-128.4,84.3-177.6l-1-0.5C77.9,22.3,56,51.9,40.9,85.6C27.2,116.1,19.7,149,19.7,178.1"/>
<path class="st1" d="M2.9,320c0,0.1,0,0.2,0,0.3c0,0.1,0,0.2,0,0.3h1c0-0.1,0-0.2,0-0.3c0-0.1,0-0.2,0-0.3
	C3.9,206.7,55.4,63.3,118.6,0.5L117.9,0C86.4,31.3,57.1,82.4,35.5,143.9c-10.3,29.2-18.3,59.3-23.9,89.4C5.8,264,2.9,293.1,2.9,320"
	/>
<rect y="0.4" class="st2" width="118.6" height="332"/>
<path class="st0" d="M926.3,181.7c0,26.2-3.5,51.7-10.5,76c-6.7,23.4-16.5,45-28.9,64.1l-0.5-0.3c25.3-38.8,39.3-88.5,39.3-139.8
	c0-16.6-4.1-50.8-13.2-86.8c-7.4-29.6-20.6-70-41.1-94l0.5-0.4c20.6,24.1,33.8,64.6,41.2,94.2C922.2,130.9,926.3,165.2,926.3,181.7"
	/>
<path class="st1" d="M907.9,172.7c0,27.5-4.6,54.6-13.8,80.3c-8.8,24.9-21.7,48-38.2,68.9l-0.9-0.4c33.9-42.8,51.9-94.2,51.9-148.8
	c0-51.1-22.2-124.1-71.9-171.6l0.9-0.5c22.5,21.5,41.2,50.1,54.1,82.7C901.5,112.8,907.9,144.5,907.9,172.7"/>
<path class="st1" d="M965,321c0,0.1,0,0.2,0,0.3c0,0.1,0,0.2,0,0.3h-1.1c0-0.1,0-0.2,0-0.3c0-0.1,0-0.2,0-0.3
	c0-113.7-57.9-257.4-129-320.5l0.8-0.5c35.4,31.4,68.3,82.7,92.6,144.4c11.5,29.3,20.6,59.5,26.9,89.7
	C961.7,264.8,965,294.1,965,321"/>
<rect x="842.8" class="st2" width="124.4" height="306.2"/>
</svg>
