<?xml version="1.0" encoding="utf-8"?>
<!-- Generator: Adobe Illustrator 19.2.0, SVG Export Plug-In . SVG Version: 6.00 Build 0)  -->
<svg version="1.1" id="Capa_1" xmlns="http://www.w3.org/2000/svg" xmlns:xlink="http://www.w3.org/1999/xlink" x="0px" y="0px"
	 viewBox="0 0 179.1 143.8" style="enable-background:new 0 0 179.1 143.8;" xml:space="preserve">
<path id="XMLID_546_" d="M134,57.8l10,29.1l12.3-4.2l-1.7-5l-6.4,2.2l-2.6-7.5l6.1-2.1l-1.7-5l-6.1,2.1l-2.2-6.4l6.4-2.2l-1.7-5
	L134,57.8z M118.1,69l4.4-1.5l8.3,24.1l6-2.1l-8.3-24.1l4.4-1.5l-1.7-5l-14.8,5.1L118.1,69z M108,66.8l5.3,15.5
	c0.4,1.2,1.4,3.2,2.8,5.8c-2.7-4.2-4.1-6.4-4.2-6.6l-9.4-12.8l-7.1,2.5l10,29.1l5.4-1.9L105.1,82c-0.2-0.6-0.9-2.2-2.1-4.9
	c1.1,1.9,1.9,3,2.1,3.5c0.4,0.7,0.7,1.2,0.9,1.5l10.3,14.4l7.1-2.4l-10-29.1L108,66.8z M79.7,76.5l10,29.1l12.3-4.2l-1.7-5l-6.4,2.2
	L91.3,91l6.1-2.1l-1.7-5L89.6,86l-2.2-6.4l6.4-2.2l-1.7-5L79.7,76.5z M74.3,96.9l1.8-0.6l1.9,5.5c0.6,1.7,0.3,2.7-0.9,3.1
	c-1.2,0.4-2-0.2-2.6-1.9l-5.1-14.9c-0.6-1.7-0.3-2.7,0.9-3.1c1.2-0.4,2.1,0.2,2.6,1.9l0.4,1.1l6-2.1l-0.7-2.1
	c-1.1-3.2-3-4.8-5.7-4.8c-1,0-2.4,0.3-4.2,0.9c-1.1,0.4-2.1,0.8-2.9,1.2c-0.8,0.4-1.6,1-2.2,1.8c-1.2,1.5-1.3,3.6-0.5,6.1l5.9,17
	c1.1,3.2,3.1,4.8,5.9,4.7c1,0,2.4-0.3,4.2-1c1-0.4,1.9-0.7,2.7-1.1c1.1-0.5,1.9-1.3,2.5-2.2c0.9-1.5,1-3.4,0.2-5.8l-4-11.5l-7.7,2.7
	L74.3,96.9z M50.9,92.1l0.1,0c0.7-0.3,1.3-0.3,1.7-0.1c0.6,0.3,1.2,1.1,1.7,2.6c0.5,1.3,0.5,2.3,0.3,2.8c-0.2,0.5-0.9,0.9-2,1.3
	L52.1,99l-2.2-6.5L50.9,92.1z M54.8,103.6c0.9-0.3,1.5-0.3,2,0c0.5,0.4,1,1,1.3,2.1l2.4,7c0.3,1,0.8,1.8,1.3,2.5l6-2.1
	c-0.3-0.3-0.6-0.6-0.7-0.9c-0.1-0.2-0.3-0.7-0.6-1.6l-2.5-7.3c-0.5-1.6-1.2-2.7-2-3.3c-0.8-0.6-2-0.8-3.4-0.6
	c0.6-0.6,1.1-1.1,1.5-1.6c0.5-0.6,0.7-1.3,0.9-2.2c0.2-1.1,0-2.4-0.5-3.9c-0.3-0.9-0.7-1.7-1.1-2.5c-0.9-1.7-2.2-2.8-3.7-3.3
	c-1.2-0.4-2.8-0.2-4.8,0.4l-8.5,2.9l10,29.1l6-2.1L53.8,104L54.8,103.6z M32.5,92.8l7.6,22c0.6,1.7,0.3,2.7-0.9,3.1
	c-1.2,0.4-2-0.2-2.6-1.9L29,94l-6,2.1l7.6,21.9c0.6,1.7,1.3,3.1,2,4c0.7,0.8,1.7,1.4,3,1.6c1.5,0.3,3.3,0.1,5.3-0.6
	c3.3-1.2,5.3-2.8,5.8-4.9c0.3-1.3,0.1-3.1-0.6-5.3l-7.6-22L32.5,92.8z"/>
<path id="XMLID_533_" d="M150,14.7l5.3,15.3c0.4,1.2,1.3,3.1,2.7,5.7c-2.6-4.1-4-6.3-4.2-6.5l-9.3-12.6l-7,2.4l9.9,28.6l5.3-1.8
	l-5.5-16.1c-0.2-0.6-0.9-2.2-2.1-4.8c1.1,1.8,1.8,3,2.1,3.4c0.4,0.7,0.7,1.2,0.9,1.5l10.1,14.1l7-2.4l-9.9-28.6L150,14.7z M125,15.6
	l-1.5,5.7L127,20l4.2-6.6L125,15.6z M134.6,46.9c-1.1,0.4-2-0.2-2.6-1.9L127,30.4c-0.6-1.6-0.3-2.6,0.9-3c1.2-0.4,2,0.2,2.6,1.8
	l5.1,14.7C136.1,45.5,135.8,46.5,134.6,46.9 M132.3,52.8c0.9,0,2.3-0.3,4.1-0.9c1-0.4,1.9-0.7,2.7-1.1c1.1-0.5,1.9-1.3,2.5-2.2
	c0.9-1.5,1-3.4,0.2-5.7L136,26.2c-1.1-3.1-2.9-4.7-5.6-4.7c-1,0-2.3,0.3-4.1,0.9c-1.1,0.4-2,0.8-2.9,1.2c-0.8,0.4-1.5,1-2.1,1.8
	c-1.2,1.5-1.3,3.5-0.5,6l5.8,16.7C127.6,51.3,129.6,52.8,132.3,52.8 M109.3,28.7l9.9,28.6l5.9-2l-9.9-28.6L109.3,28.7z M106.3,49.2
	l1.4,4.2c0.6,1.6,0.3,2.6-0.9,3.1c-1.1,0.4-2-0.2-2.6-1.9L99.2,40c-0.6-1.6-0.3-2.6,0.9-3c1.2-0.4,2,0.2,2.6,1.8l1.1,3.1l5.9-2
	l-1.4-4.1c-1.1-3.1-3-4.7-5.6-4.7c-1,0-2.3,0.3-4.1,0.9c-1.1,0.4-2,0.8-2.9,1.2c-0.8,0.4-1.5,1-2.1,1.8c-1.2,1.5-1.3,3.5-0.5,6
	l5.8,16.7c1.1,3.1,3,4.7,5.8,4.7c0.9,0,2.3-0.3,4.1-0.9c1-0.4,1.9-0.7,2.7-1.1c1.1-0.5,1.9-1.3,2.5-2.2c0.9-1.5,1-3.4,0.2-5.7
	l-1.8-5.2L106.3,49.2z M88.1,55.5l1.5,4.2c0.6,1.6,0.3,2.7-0.9,3.1c-1.1,0.4-2-0.2-2.6-1.9L81,46.3c-0.6-1.6-0.3-2.6,0.9-3
	c1.2-0.4,2,0.2,2.6,1.8l1.1,3.1l5.9-2L90,42c-1.1-3.1-2.9-4.7-5.6-4.7c-1,0-2.3,0.3-4.1,0.9c-1.1,0.4-2,0.8-2.9,1.2
	c-0.8,0.4-1.5,1-2.1,1.8c-1.2,1.5-1.3,3.5-0.5,6L80.5,64c1.1,3.1,3,4.7,5.8,4.7c0.9,0,2.3-0.3,4.1-0.9c1-0.4,1.9-0.7,2.7-1.1
	c1.1-0.5,1.9-1.3,2.5-2.2c0.9-1.5,1-3.4,0.2-5.7l-1.8-5.2L88.1,55.5z M66.9,64.2l-2.8-13l5.7,12L66.9,64.2z M58.1,46.3l5.2,30.2
	l5.8-2l-1.2-5.1l4.2-1.4l2.3,4.8l5.9-2L66,43.6L58.1,46.3z M30.6,55.8l9.9,28.6l12.1-4.2l-1.7-5l-6.3,2.2L42,70l6-2.1l-1.7-5l-6,2.1
	l-2.2-6.3l6.3-2.2l-1.7-5L30.6,55.8z M20.4,64.9c1-0.3,1.7-0.4,2.1-0.2c0.5,0.2,1,1,1.5,2.3l4.3,12.5c0.3,0.9,0.5,1.6,0.5,2
	c0,0.7-0.3,1.3-0.9,1.7c-0.3,0.2-1,0.5-2,0.8l-6.4-18.7L20.4,64.9z M21.7,90.9l8.5-2.9c1.4-0.5,2.5-1.1,3.3-1.8
	c0.8-0.8,1.4-1.8,1.7-3c0.3-1.1,0-2.9-0.8-5.2l-4.7-13.7c-0.6-1.6-1.2-2.9-1.9-3.7c-0.9-1-2-1.6-3.3-1.8c-1.2-0.2-2.8,0.1-4.8,0.8
	l-7.8,2.7L21.7,90.9z"/>
<path id="XMLID_524_" d="M89.7,25.5c-1.1,0.4-2-0.2-2.6-1.9L82.1,8.9c-0.6-1.6-0.3-2.6,0.9-3c1.2-0.4,2,0.2,2.6,1.8l5.1,14.7
	C91.2,24.1,90.9,25.1,89.7,25.5 M87.4,31.3c0.9,0,2.3-0.3,4.1-0.9c1-0.4,1.9-0.7,2.7-1.1c1.1-0.5,1.9-1.3,2.5-2.2
	c0.9-1.5,1-3.4,0.2-5.7L91.1,4.7C90,1.6,88.2,0,85.5,0c-1,0-2.3,0.3-4.1,0.9c-1.1,0.4-2,0.8-2.9,1.2c-0.8,0.4-1.5,1-2.1,1.8
	c-1.2,1.5-1.3,3.5-0.5,6l5.8,16.7C82.7,29.8,84.6,31.4,87.4,31.3 M63.7,13c1-0.3,1.7-0.4,2.1-0.2c0.5,0.2,1,1,1.5,2.3l4.3,12.5
	c0.3,0.9,0.5,1.6,0.5,2c0,0.7-0.3,1.3-0.9,1.7c-0.3,0.2-1,0.5-2,0.8l-6.4-18.7L63.7,13z M65.1,39l8.5-2.9c1.4-0.5,2.5-1.1,3.3-1.8
	c0.8-0.8,1.4-1.8,1.7-3c0.3-1.1,0-2.9-0.8-5.2L73,12.4c-0.6-1.6-1.2-2.9-1.9-3.7c-0.9-1-2-1.6-3.3-1.8C66.6,6.8,65,7,63,7.7
	l-7.8,2.7L65.1,39z M46.2,13.5l5.3,15.3c0.4,1.2,1.3,3.1,2.7,5.7c-2.6-4.1-4-6.3-4.2-6.5l-9.3-12.6l-7,2.4l9.9,28.6l5.3-1.8
	l-5.5-16.1c-0.2-0.6-0.9-2.2-2.1-4.8c1.1,1.8,1.8,3,2.1,3.4c0.4,0.7,0.7,1.2,0.9,1.5l10.1,14.1l7-2.4l-9.9-28.6L46.2,13.5z
	 M30.8,45.7c-1.1,0.4-2-0.2-2.6-1.9l-5.1-14.7c-0.6-1.6-0.3-2.6,0.9-3c1.2-0.4,2,0.2,2.6,1.8l5.1,14.7C32.3,44.3,32,45.3,30.8,45.7
	 M28.5,51.6c0.9,0,2.3-0.3,4.1-0.9c1-0.3,1.9-0.7,2.7-1.1c1.1-0.5,1.9-1.3,2.5-2.2c0.9-1.5,1-3.4,0.2-5.7L32.2,25
	c-1.1-3.1-2.9-4.7-5.6-4.7c-1,0-2.3,0.3-4.2,0.9c-1.1,0.4-2,0.8-2.9,1.2c-0.8,0.4-1.5,1-2.1,1.8c-1.2,1.5-1.3,3.5-0.5,6l5.8,16.7
	C23.8,50.1,25.8,51.6,28.5,51.6 M0,29.4L9.9,58l5.9-2l-4.3-12.4l6-2.1l-1.7-5l-6,2.1l-2.2-6.3l6.3-2.2l-1.7-5L0,29.4z"/>
<g id="XMLID_466_">
	<path id="XMLID_521_" d="M46.9,141.5l-2.4,0.8l-1.5-2.9l-1.1,0.4l0.6,3.2l-2.4,0.8l-2-11.9l3.1-1.1L46.9,141.5z M42.3,137.9
		l-1.5-3.2l0.8,3.5L42.3,137.9z"/>
	<path id="XMLID_519_" d="M56,138.3l-2.2,0.8l-2.5-7.3c-0.1-0.3-0.3-0.4-0.5-0.3c-0.3,0.1-0.3,0.3-0.2,0.5l2.5,7.3l-2.2,0.8
		l-2.5-7.3c-0.1-0.3-0.3-0.4-0.5-0.3c-0.3,0.1-0.3,0.3-0.2,0.5l2.5,7.3l-2.2,0.8l-3.2-9.1l2.2-0.8l0.1,0.3c0.2-0.4,0.6-0.7,1.3-0.9
		c0.5-0.2,1.1-0.1,1.6,0.1c0.2-0.5,0.7-0.9,1.4-1.2c0.4-0.1,0.8-0.1,1.2,0c0.4,0.1,0.7,0.4,0.8,0.8L56,138.3z"/>
	<path id="XMLID_515_" d="M60.8,132.3l-3,1l0.7,2.1c0.1,0.3,0.3,0.4,0.5,0.3c0.3-0.1,0.3-0.3,0.2-0.6l-0.6-1.8l2.2-0.8l0.6,1.9
		c0.4,1.2-0.2,2.1-2,2.8c-1.7,0.6-2.8,0.3-3.3-1l-1.9-5.5c-0.4-1.3,0.2-2.2,1.9-2.8c1.8-0.6,2.8-0.3,3.3,0.9L60.8,132.3z
		 M57.1,125.3l-0.4,1.8l-1.2,0.4l0-1.6L57.1,125.3z M58.1,131.7l-0.7-2.1c-0.1-0.3-0.3-0.4-0.5-0.3c-0.3,0.1-0.3,0.3-0.2,0.6
		l0.7,2.1L58.1,131.7z"/>
	<path id="XMLID_513_" d="M66.5,128.7l-2.2,0.8l-0.7-2c-0.1-0.3-0.3-0.4-0.5-0.3c-0.3,0.1-0.3,0.3-0.2,0.5l2.5,7.3l-2.2,0.8
		l-3.2-9.1l2.2-0.8l0.1,0.3c0.2-0.3,0.6-0.6,1.3-0.8c0.4-0.2,0.9-0.2,1.3,0c0.4,0.1,0.7,0.4,0.8,0.8L66.5,128.7z"/>
	<path id="XMLID_510_" d="M68.1,123.4l-2.2,0.8l-0.6-1.6l2.2-0.8L68.1,123.4z M71.4,133l-2.2,0.8l-3.2-9.1l2.2-0.8L71.4,133z"/>
	<path id="XMLID_508_" d="M75.8,125.8l-2.2,0.8l-0.8-2.2c-0.1-0.3-0.3-0.4-0.5-0.3c-0.3,0.1-0.3,0.3-0.2,0.6l1.9,5.6
		c0.1,0.3,0.3,0.4,0.5,0.3c0.3-0.1,0.3-0.3,0.2-0.6l-0.8-2.2l2.2-0.8l0.8,2.2c0.4,1.2-0.2,2.1-1.9,2.7c-1.8,0.6-2.9,0.3-3.3-1
		l-1.9-5.5c-0.4-1.3,0.2-2.2,2-2.8c1.7-0.6,2.8-0.3,3.2,0.9L75.8,125.8z"/>
	<path id="XMLID_505_" d="M83.8,128.7l-2,0.7l-0.1-0.4c-0.1,0.4-0.5,0.7-1.3,1c-1.2,0.4-2,0.2-2.3-0.8l-0.6-1.8
		c-0.1-0.4-0.1-0.8,0.1-1.2c0.2-0.4,0.7-1,1.4-1.8c0.4-0.4,0.6-0.7,0.6-0.9l-0.5-1.3c-0.1-0.3-0.3-0.4-0.5-0.3
		c-0.3,0.1-0.3,0.5-0.1,1.2c0,0.1,0.1,0.3,0.2,0.6c0.1,0.2,0.2,0.4,0.2,0.6l-2.2,0.7l-0.6-1.8c-0.4-1.2,0.2-2.2,2-2.8
		c1.7-0.6,2.7-0.2,3.2,1.1L83.8,128.7z M80.9,127.8l-0.8-2.3c-0.5,0.3-0.6,0.6-0.5,1l0.6,1.7c0.1,0.3,0.3,0.4,0.5,0.3
		C80.9,128.2,81,128,80.9,127.8z"/>
	<path id="XMLID_503_" d="M92.7,125.6l-4.6,1.6L84.2,116l2.5-0.9l3.4,9.8l2.2-0.8L92.7,125.6z"/>
	<path id="XMLID_500_" d="M98.8,123.5l-2,0.7l-0.1-0.4c-0.1,0.4-0.5,0.7-1.3,1c-1.2,0.4-2,0.2-2.3-0.8l-0.6-1.8
		c-0.1-0.4-0.1-0.8,0.1-1.2c0.2-0.4,0.7-1,1.4-1.8c0.4-0.4,0.6-0.7,0.6-0.9L94,117c-0.1-0.3-0.3-0.4-0.5-0.3
		c-0.3,0.1-0.3,0.5-0.1,1.2c0,0.1,0.1,0.3,0.2,0.6c0.1,0.2,0.2,0.4,0.2,0.6l-2.2,0.7l-0.6-1.8c-0.4-1.2,0.2-2.2,2-2.8
		c1.7-0.6,2.7-0.2,3.2,1.1L98.8,123.5z M95.9,122.6l-0.8-2.3c-0.5,0.3-0.6,0.6-0.5,1l0.6,1.7c0.1,0.3,0.3,0.4,0.5,0.3
		C95.9,123,96,122.8,95.9,122.6z"/>
	<path id="XMLID_498_" d="M104.1,121.6l-1.4,0.5c-1,0.3-1.7,0.4-2,0.2c-0.3-0.2-0.6-0.8-0.9-1.6l-1.9-5.6l-1,0.3l-0.5-1.3l1-0.3
		l-0.6-1.8l2.2-0.8l0.6,1.8l1.2-0.4l0.5,1.3l-1.2,0.4l1.9,5.5c0.1,0.3,0.2,0.4,0.4,0.5c0.2,0,0.6,0,1.1-0.2L104.1,121.6z"/>
	<path id="XMLID_495_" d="M103.9,111l-2.2,0.8l-0.6-1.6l2.2-0.8L103.9,111z M107.2,120.6l-2.2,0.8l-3.2-9.1l2.2-0.8L107.2,120.6z"/>
	<path id="XMLID_493_" d="M113.3,118.4l-2.2,0.8l-2.5-7.3c-0.1-0.3-0.3-0.4-0.5-0.3c-0.3,0.1-0.3,0.3-0.2,0.5l2.5,7.3l-2.2,0.8
		l-3.2-9.1l2.2-0.8l0.1,0.3c0.2-0.3,0.6-0.6,1.3-0.8c0.4-0.1,0.8-0.2,1.2-0.1c0.4,0.1,0.7,0.4,0.8,0.8L113.3,118.4z"/>
	<path id="XMLID_490_" d="M119.5,116.3l-2,0.7l-0.1-0.4c-0.1,0.4-0.5,0.7-1.3,1c-1.2,0.4-2,0.2-2.3-0.8l-0.6-1.8
		c-0.1-0.4-0.1-0.8,0.1-1.2c0.2-0.4,0.7-1,1.4-1.8c0.4-0.4,0.6-0.7,0.6-0.9l-0.5-1.3c-0.1-0.3-0.3-0.4-0.5-0.3
		c-0.3,0.1-0.3,0.5-0.1,1.2c0,0.1,0.1,0.3,0.2,0.6c0.1,0.2,0.2,0.4,0.2,0.6l-2.2,0.7l-0.6-1.8c-0.4-1.2,0.2-2.2,2-2.8
		c1.7-0.6,2.7-0.2,3.2,1.1L119.5,116.3z M116.7,115.4l-0.8-2.3c-0.5,0.3-0.6,0.6-0.5,1l0.6,1.7c0.1,0.3,0.3,0.4,0.5,0.3
		C116.7,115.8,116.8,115.6,116.7,115.4z"/>
	<path id="XMLID_488_" d="M126.5,103.7l1.4,9.7c0.1,1,0.1,1.6-0.1,1.9c-0.2,0.3-0.6,0.5-1.1,0.7l-1.6,0.5l-0.4-1.2
		c0.6-0.2,0.9-0.4,1.1-0.5c0.1-0.1,0.1-0.3,0-0.6s-0.9-1.6-2.5-4.1l-2.8-4.4l2.2-0.8l2.6,4.5l-0.9-5.1L126.5,103.7z"/>
	<path id="XMLID_485_" d="M137.6,105.7l-3,1l0.7,2.1c0.1,0.3,0.3,0.4,0.5,0.3c0.3-0.1,0.3-0.3,0.2-0.6l-0.6-1.8l2.2-0.8l0.6,1.9
		c0.4,1.2-0.2,2.1-2,2.8c-1.7,0.6-2.8,0.3-3.3-1l-1.9-5.5c-0.4-1.3,0.2-2.2,1.9-2.8c1.8-0.6,2.8-0.3,3.3,0.9L137.6,105.7z
		 M134.9,105.1l-0.7-2.1c-0.1-0.3-0.3-0.4-0.5-0.3c-0.3,0.1-0.3,0.3-0.2,0.6l0.7,2.1L134.9,105.1z"/>
	<path id="XMLID_483_" d="M142.1,108.5l-2.2,0.8L136,98l2.2-0.8L142.1,108.5z"/>
	<path id="XMLID_481_" d="M149.3,97.8l-2.2,0.8l-0.8-2.2c-0.1-0.2-0.2-0.2-0.4-0.2c-0.2,0.1-0.3,0.2-0.3,0.4l2.7,7.8
		c0.1,0.2,0.2,0.2,0.5,0.1c0.2-0.1,0.3-0.2,0.2-0.4l-1-2.8l2.2-0.8l1,2.9c0.2,0.5,0.1,1.1-0.3,1.6c-0.4,0.5-0.9,0.9-1.6,1.1
		c-1.9,0.7-3.1,0.3-3.6-1l-2.5-7.2c-0.5-1.5,0.2-2.5,2.1-3.2c1.7-0.6,2.8-0.2,3.2,1.1L149.3,97.8z"/>
	<path id="XMLID_478_" d="M158,103l-2,0.7l-0.1-0.4c-0.1,0.4-0.5,0.7-1.3,1c-1.2,0.4-2,0.2-2.3-0.8l-0.6-1.8
		c-0.1-0.4-0.1-0.8,0.1-1.2c0.2-0.4,0.7-1,1.4-1.8c0.4-0.4,0.6-0.7,0.6-0.9l-0.5-1.3c-0.1-0.3-0.3-0.4-0.5-0.3
		c-0.3,0.1-0.3,0.5-0.1,1.2c0,0.1,0.1,0.3,0.2,0.6c0.1,0.2,0.2,0.4,0.2,0.6l-2.2,0.7l-0.6-1.8c-0.4-1.2,0.3-2.2,2-2.8
		c1.7-0.6,2.7-0.2,3.2,1.1L158,103z M155.2,102l-0.8-2.3c-0.5,0.3-0.6,0.6-0.5,1l0.6,1.7c0.1,0.3,0.3,0.4,0.5,0.3
		C155.2,102.5,155.3,102.3,155.2,102z"/>
	<path id="XMLID_476_" d="M162.4,95.5l-2.2,0.8l-0.7-2c-0.1-0.3-0.3-0.4-0.5-0.3c-0.3,0.1-0.3,0.3-0.2,0.5l2.5,7.3l-2.2,0.8
		l-3.2-9.1l2.2-0.8l0.1,0.3c0.2-0.3,0.6-0.6,1.3-0.8c0.4-0.2,0.9-0.2,1.3,0c0.4,0.1,0.7,0.4,0.8,0.8L162.4,95.5z"/>
	<path id="XMLID_473_" d="M164,90.1l-2.2,0.8l-0.6-1.6l2.2-0.8L164,90.1z M167.3,99.7l-2.2,0.8l-3.2-9.1l2.2-0.8L167.3,99.7z"/>
	<path id="XMLID_470_" d="M170,98.5l-0.1,0.4l-1.7,0.6l-3.9-11.2l2.2-0.8l0.8,2.4c0.2-0.3,0.6-0.6,1.3-0.8c0.4-0.1,0.8-0.2,1.2-0.1
		s0.7,0.4,0.8,0.8l2.3,6.5c0.2,0.5,0.1,0.9-0.2,1.3c-0.3,0.4-0.7,0.7-1.3,0.9C171,98.6,170.5,98.6,170,98.5z M170.6,96.7l-2-5.6
		c-0.1-0.3-0.3-0.4-0.5-0.3c-0.3,0.1-0.3,0.3-0.3,0.5l2,5.7c0.1,0.3,0.3,0.4,0.5,0.3C170.6,97.1,170.7,97,170.6,96.7z"/>
	<path id="XMLID_467_" d="M178.3,91.6l-3,1l0.7,2.1c0.1,0.3,0.3,0.4,0.5,0.3c0.3-0.1,0.3-0.3,0.2-0.6l-0.6-1.8l2.2-0.8l0.6,1.9
		c0.4,1.2-0.2,2.1-2,2.8c-1.7,0.6-2.8,0.3-3.3-1l-1.9-5.5c-0.4-1.3,0.2-2.2,1.9-2.8c1.8-0.6,2.8-0.3,3.3,0.9L178.3,91.6z M175.6,91
		l-0.7-2.1c-0.1-0.3-0.3-0.4-0.5-0.3c-0.3,0.1-0.3,0.3-0.2,0.6l0.7,2.1L175.6,91z"/>
</g>
</svg>
