<?xml version="1.0" encoding="utf-8"?>
<!-- Generator: Adobe Illustrator 19.2.0, SVG Export Plug-In . SVG Version: 6.00 Build 0)  -->
<svg version="1.1" id="Capa_1" xmlns="http://www.w3.org/2000/svg" xmlns:xlink="http://www.w3.org/1999/xlink" x="0px" y="0px"
	 viewBox="0 0 297.9 378.4" style="enable-background:new 0 0 297.9 378.4;" xml:space="preserve">
<style type="text/css">
	.st0{fill:#C3C5CA;}
</style>
<path class="st0" d="M158,316.5c0.5-0.2,1-0.7,0.8-1.2c-0.7-1.4-0.2-2.4,0.7-3.5c0.7-0.9-0.1-1.6-1-1.6c-1.3,0-1.1-0.6-1.2-1.7
	c-0.1-1.7,0.2-3.6-1-5.3c-0.9-1.2-1.3-3.1,0.6-4.3c0.9-0.5,0.4-1.2,0.2-1.8c-0.3-1.3-0.1-2.7-0.3-4c-0.3-2.6,0.8-4.8,1.4-7.2
	c0.4-1.8,0-3.9,2-5.1c0.6-0.4,0.3-1.2,0-1.9c-0.6-1.9-1-3.7-1-5.8c0.1-1.5,0.4-2.8,1.6-3.5c1.7-1,1.8-2.5,1.4-4.1
	c-0.5-2.1,0.3-3.7,1.4-5.2c0.8-1,0.8-1.7,0.6-2.9c-0.7-3.3-1.2-6.6-2.3-9.9c-0.6-1.9,0.2-3.6,1.3-5c0.6-0.8,0.9-1.5,0.9-2.5
	c-0.1-3.1,0.4-6,2.5-8.5c1.1-1.3,1.3-3.2,3.1-4.3c1-0.6-0.1-2.9,0-4.4c0-0.6-0.3-1.2-0.4-1.8c-0.4-4-0.3-4.2,3.1-5.9
	c2.3-1.2,2.5-2.7,2.8-4.7c0.2-1.7,3.3-1.3,3.7-3.7c0.1-0.4,1.3,1.2,1.6,1.1c2.5-0.4,4.4-0.5,4.7,2.1c0.9-0.3,1.3-1,1.5-1.4
	c0.7-2.1,4.1-1.9,5.1-0.3c1.4,2.2,2.5,3.2,4.6,4.8c0.9,0.7,1.7,2.1,2.8,2.2c1.6,0.2,3,0.6,4.2,1.8c1.4,1.4,3.9,1.7,5.6,2.7
	c1.1,0.6,1.8,1.2,0.6,2.5c-1.7,1.7-1.6,3.5-2.8,5.5c-0.3,0.5,0.7,1.2,1.2,1.2c1.5,0,1.8,0.4,3,0.8c2.3,0.8,4.8,0,6.4-0.9
	c1.9-1.2,4.5-2.1,4.4-5.3c0-0.7-0.4-1.6,0.8-1.8c1.1-0.1,1.3,0.6,1.6,1.5c0.6,2.2,0.7,3.6-1.5,5.1l0,0c-1.4,0.4-2.7,1-3.5,2.3l0,0
	c-0.8,0.1-1.4,0.4-1.3,1.4l0,0c-0.3,0-0.5,0.1-0.5,0.5l0,0c-2.2,0.9-2.9,3.1-4,5l0,0c-0.5,0.1-0.7,0.5-0.9,0.9l0,0
	c-1.4,1.3-3.2,2.4-3.4,4.5c-0.6,5.6-2.7,10.8-2.6,16.6c0,1.5,0.5,2.4,1.5,2.8c1.4,0.6,2.4,1.6,3.6,2.4l0,0c-0.2,0.4-0.3,0.8-0.5,1.2
	c-1.1,2.2-0.3,3.6,2.2,3.8l0,0c-0.2,4.2-2.7,7.1-5.4,9.9c-0.1,0-0.2,0.1-0.3,0.1c-1.7,0.3-3.4,0.9-5,1.7c-0.3,0-0.5,0.1-0.8,0.1
	c-1.4-0.1-2.8,0.3-4.1,0.8c-0.5,0-1.1,0.1-1.6,0.1c-0.6,0-1.3,0-1.9,0c-0.1-0.1-0.2-0.1-0.3-0.1c-0.6-0.4-1.3-1.4-2-0.6
	c-0.6,0.6-0.4,1.6,0.6,2l0,0c0.1,0.2,0.3,0.3,0.4,0.5c0,0.6,0,1.1,0,1.7c-0.6,0.7-1.3,1.3-1.3,2.4c0,0.3,0,0.5-0.1,0.8
	c0.1,1.1,1.1,2.1-0.1,3.1c-0.3,0.1-0.6,0.3-0.9,0.4c-0.3,0.2-0.6,0.3-0.9,0.5c-0.4,0-0.8,0.1-1.2,0.1c-0.6,0-1.2,0-1.9,0
	c-0.1,0-0.2-0.1-0.3-0.1c-0.2-0.1-0.4-0.2-0.6-0.3c-0.6-0.3-1.2-0.5-1.8-0.8c-0.6-0.3-1-1-1.8-0.6c-0.8,0.5-0.7,1.4-0.5,2
	c0.5,2,0.4,4.1,1.2,6.1c0.4,0.9,0.7,3.2-0.7,4.7c-1,1-1.5,2.2-1.1,3.8c0.6,2.6-1.3,4-3.2,5.1c-1.6,0.9-3.1,2-4.3,3.5
	c-2.2,3-0.7,7.6,2.9,8.4c1.1,0.2,2.7-0.1,2.7,1.5c0.1,1.7,0,3.5-1.3,4.8c-0.7,0.7-1.5,1.2-2.3,1.7c-1.1,0.7-2.5,1.1-2.7,2.6l0,0
	c-0.6,0-0.9,0.4-0.8,1c0,0.4-0.1,0.8-0.1,1.3c-0.4,0.4-0.3,1-0.4,1.5c-0.1,1-0.3,2.1-1.1,2.9c-0.9,0.8-1.5-0.7-2.4-0.4
	c0.3,0.6,0.5,1,0.7,1.5c-0.1,0-0.2,0.1-0.2,0.1c-2,0.7-3.2,3.3-2.5,5.3c0.3,1.1,1.7,2.6-1.4,3.2c2.3,0.3,2.8,1.6,3.4,2.8
	c0.6,1.2-0.3,1-0.9,1c-0.1,0-0.2-0.1-0.3-0.1c-2.7-1.3-5.4-1.9-8.4-1.7c-2.2,0.2-3.5-1.2-3.6-3.5c0-1,0-2,0-2.9
	c0.1-1.5-0.4-2.3-2.1-1.9c-0.5,0.1-1.1,0.3-1.6-0.4c-2-2.8-1.5-6.6,1-9c1.4-1.3,2.6-3.3,2.3-5.1c-0.3-1.7,0.2-2.7,0.6-4.1
	c0.5-1.9,2.4-3.4,1.8-5.5C157,319.9,157.4,318.2,158,316.5L158,316.5z"/>
<path class="st0" d="M162.5,192c0.8,0.2,2.3,2,3.4-1.5c0.4-1.5,1-1,1.1-0.2c0.4,7.9,4.9,5,1.7,9.2c-0.3,0.5,0.2,1.4,0.5,1.9
	c1.6,2.6,2.6,5.6,2.5,8.4c0.1,1.3,0.2,1.1,1,1c1.1,0,1.3-0.2,1,0.9c-0.5,1.7-1,2.5-2.9,3.1c-2.4,0.8-3,2.4-2.3,6.1
	c0.3,1.6,0.2,3.3,0.5,4.9c0.1,0.4,0.2,0.6-0.2,1c-2.5,2-3.4,5.1-4.6,7.9c-0.7,1.6-1,3.1-0.4,4.9c0.2,0.7-0.4,1.4-0.8,2
	c-1.4,2.4-2.2,4.8-0.9,7.8c0.9,2.3,1.2,4.9,1.7,7.4c0.2,0.9,0,1.7-0.5,2.5c-1.2,2.1-2.4,4.4-1.4,7.1c0.3,0.7,0.1,1.2-0.4,1.5
	c-3.4,2.1-2.2,5.6-2.1,8.7c0.1,1.7,0.9,3-0.7,4.7c-1,1.1-0.5,3.7-1.2,5.5c-1.1,3.1-1.2,6.2-0.6,9.4c0.2,1.4-1.3,2-1.2,3.5
	c0.1,1.3,0,2.5,0.6,3.8c0.7,1.4,0.9,3.2,0.5,4.9c-0.2,0.8-0.3,1.7,0.8,1.9c0.5,0.1,1.5-0.3,1.3,0.7c-0.2,1-1.1,0.6-1.8,0.5
	c-0.2-0.1-0.5-0.1-1-0.1c0.5,1.8,2.8,2.2,2.1,4.4l0,0c-1.3,0.1-1.3,1.3-1.2,2.2c0.4,3.5-0.8,6.5-2.2,9.4c-0.3,0.7-1,1.5-0.5,2.3
	c0.7,1.2,0.2,1.8-0.1,2.9c-0.6,1.7-1.5,2.8-2.7,3.8c-0.9,0.8-0.5,2.6-2,2.9l0,0c0.1-0.4,0-0.7-0.4-0.9c-0.9-1.3-2.2-2.6,0-4
	c-0.7-1.1,1.3-3.1-1.3-3.6c0.7-0.8,1.3-0.7,1.8-0.5c0.5,0.1,0.9,0.4,1.3,0.7c0.4,0.2,0.9,0.4,1.1-0.2c0.3-0.8-0.6-0.5-0.6-0.7
	c-0.3-1.9-2.5-1.3-3-2.9c-0.2-0.6-0.6-0.9,0.2-1.1c0.9-0.2,1.1-0.9,1-1.7c-0.1-0.8-0.8-1.6-1.3-1.5c-1.6,0.3-2.8-1.2-4.7-0.6
	c1.3-1.6,3.1-2,3.5-3.9c0.6,0.6,1.7-1.4,2.1,0.5c0.2,0.7,0.4,1.8,1.5,1.2c0.9-0.5,0.7-0.9,0.3-1.8c-0.7-1.5,0.5-2.8,2.3-2.5
	c-0.2-1.1-1.5-1.4-1.6-2.4c1.2-0.1,2.1-0.8,2.6-2c0.4-1.1,0.1-1.7-1-1.7c-0.4-0.3-1.1-0.3-1-1.2c0.5-4,1-7.9,1.6-11.9
	c0.1-0.7,0.3-1.4-0.4-1.8c-0.7-0.4-0.8,0.3-1.2,0.7c-0.9,1-1.8,0.7-2.2-0.5c-1-2.9-0.2-5.7,1-8.3c0.5-1,1.2-2,1-3.1
	c-0.6-2.5-0.7-5-1.3-7.4c-0.3-1.2-0.7-2,0.8-2.9c1.2-0.7,1.6-2.8,1.9-4.4c0.3-1.9,1.1-3.6,1.9-5.4c1.1-2.7,1.5-5.8,2.4-8.7
	c1.3-4,0-7.8-0.3-11.7c0-0.5-0.1-1.3,0.2-1.5c1.8-1.6,1-3.4,0.7-5.3c-0.3-2,1.1-3.6,1.4-5.5c0.4-3,1-6,1.6-8.9
	c0.6-3,0.3-5.9,0.4-8.7c0.1-2.9,1.5-5.5,1.4-8.4c-0.2-3.6,0.4-6.5-0.5-10.1c-0.2-0.7-0.2-0.6-0.3-1.3
	C162.5,193.2,162.5,192,162.5,192"/>
<path class="st0" d="M164.1,357.1c-0.7,1.5-2.2,1.9-3.6,2.3c-2.3,0.5-4.1,2.2-6.5,2.4c-0.5,0.1-0.9,0.3-1.1-0.3
	c-0.2-0.5,0-0.9,0.7-1.1c1.3-0.3,2.5-0.7,3.9-1c-1-1.2-2.4-0.5-3.7-0.9c0.6-0.9,0.6-1.9,0.5-2.8c-0.2-1.8-1.3-2.4-3-1.6
	c-0.5,0.2-1.1,0.7-1.6,0.2c-0.6-0.5-0.1-0.8,0.3-1.2c0.1-0.1,0.1-0.3,0-0.4c-1.4-1.7-0.3-4.6-3.2-5.7c0.9-0.7,1.4,0.3,2,0
	c0.1,0.2,0.2,0.3,0.4,0.1c-0.1-0.1-0.2-0.1-0.3-0.2c0.2-0.9,0.2-1.8-0.4-2.5c-0.3-0.5,0.1-0.4,0.3-0.5c0.1,0,0.3,0,0.4,0.1l0,0
	c0.7,1.8,1.9,3.3,2.2,5.3c0.2,0.9,0.8,0.7,1.5,0.3c1.3-0.7,1.8-0.1,1.8,1.1c0,0.6-0.1,1.1-0.2,1.7c-0.4,2,1.2,4,3.3,4
	C159.9,356.4,162.1,355.9,164.1,357.1"/>
<path class="st0" d="M167.2,373.7c-2.6-0.5-5.3-1-7.8-1.8c-0.5-0.2-2,0.7-1.7-0.6c0.2-0.6,1.9-1.1,2.9,0c0.3,0.3,1.1,0.3,1.6,0.2
	c0.8-0.1,2.4-0.3,3.1,0c0.4,0.1,0.6,0,0.8-0.3c0.3-0.4,0.1-0.8-0.3-1c-0.7-0.4-1.5-0.8-2.3-1.2c-0.7-0.3-0.8-1-0.9-1.7
	c-0.1-0.7,0.6-0.7,1.1-1c0.7-0.4,2-0.6,1.7-1.6c-0.4-1.1-1.6-0.5-2.4-0.3c-1,0.3-1.4,0-1.3-1c0.2-1.8,2.2-1.7,3-3
	c0.4-0.6,1.8-0.5,2.4,0c1,0.9,0.2,2.3,0.5,3.4C167.5,367.3,168,370.5,167.2,373.7"/>
<path class="st0" d="M176.5,374.7c-0.5-0.1-1-0.3-1.5-0.4c-0.6-1.3-1.9-0.7-2.8-0.7c-1.8,0.1-2.7-0.4-2.5-2.4c0.1-1,0-2.1,0-3.1
	c0.1-1-0.6-2.4,0.4-2.8c0.8-0.3,1.1,1.3,1.8,1.8c0.2,0.1,0.3,0.2,0.5,0.3l0,0c0.1,0.2,0.2,0.3,0.3,0.5c0,0.1,0,0.2,0.1,0.2
	c0.1,0.1,0.2,0.3,0.4,0.4l0,0c0.1,0.1,0.3,0.2,0.4,0.4l0,0c1.9,1.5,3.5,3.3,6,3.8c0.4,0.1,1-0.5,1.1,0.3c0,0.6-0.5,0.8-1.1,0.8
	C178.6,374,177.5,374.2,176.5,374.7"/>
<path class="st0" d="M208.5,352.9c0.7-0.1,1.5-0.4,1.7,0.5c0.2,0.8-0.6,0.7-1.2,0.9c-1,0.5-1.9,1.2-2.9,1.8
	c-0.4,0.3-0.8,0.8-1.5,0.3c-0.7-0.5-0.3-1-0.1-1.4c0.2-0.5,1.1-0.6,0.8-1.4c-1.4,0.1-1.9,1.1-2.8,1.6c-0.4,0.3-0.8,0.6-1.1,0.8
	c-0.6,0.4-1,0.2-1.3-0.2c-0.5-0.6,0.2-0.5,0.6-0.6c1.6-0.5,1.8-1.1,0.8-2.3c2.3,0.4,4.4-0.6,6.6-0.4c0,0.1-0.1,0.2-0.1,0.4
	C208.3,353,208.4,352.9,208.5,352.9"/>
<path class="st0" d="M173.5,376.1c0.3,0.7,0.1,1.1-1,1c-0.6,0-1.2-0.1-1.9-0.1c-0.3,0.5,0.5,0.9,0.1,1.4c-0.8-0.6-2-1-3-1.4
	c-1.5-0.5-0.1,0.6-0.6,0.9c-0.6-0.3-1.1-0.7-1.8-1.1c1.2-0.6,2.5-0.5,3.8-0.7C170.5,376.4,172,375.8,173.5,376.1"/>
<path class="st0" d="M158.5,363.7c0,0.6,0,1.1,0,1.7c0,0.6,0,1.2-1.1,1.2c-1,0-2.6-1-2.6-1.5c0.1-0.4,0.4-0.4,0.8-0.4
	C156.6,364.5,157.5,364.3,158.5,363.7"/>
<path class="st0" d="M148,305.2c-0.7-0.3-2.3,0.1-1.3-1.7c0.8-1.4,0.1-3,0.4-4.5c0.2-0.7,0.1-1.6,1.2-1.7c0.5-0.1,1,0,1.2,0.5
	c0.4,0.9,0.3,1.5-0.7,2.1c-0.8,0.5-0.5,1.1-0.1,2C149.7,303.7,149.2,305.2,148,305.2"/>
<path class="st0" d="M152.4,367.7c0-0.5,0.2-1.1-1-0.6c-0.7,0.3-0.8-0.2-1-0.5c0.3-0.3,0.5,0,0.8,0c0.4,0,1,0.1,0.2-0.3
	c-0.1-0.1,0.3-0.3,0.7-0.2C153.3,366.4,153.5,366.9,152.4,367.7"/>
<path class="st0" d="M144.8,339.7c0,0.6,0.1,2.2-0.1,2.3c-0.1,0,0-1.7-0.1-2.6c0-0.6,0.1-1.3,0-2c0-0.3,0-0.7,0-0.8
	c0.1-0.1,0.1,0.1,0.1,0.6C144.8,337.9,144.8,338.7,144.8,339.7"/>
<path class="st0" d="M151.6,357.8c-0.2,0.2-0.4,0.3-0.7,0.4c-0.2,0.1-0.4,0.3-0.6,0.2c-0.1-0.1-0.1-0.4-0.1-0.5
	c0.2-0.1,0.5-0.4,0.8-0.3C151.2,357.7,151.4,357.6,151.6,357.8"/>
<path class="st0" d="M151.1,360.9c0,0,0-0.1,0-0.2c0-0.2,0-0.4,0-0.5c0,0,0,0.1,0,0.2C151.1,360.5,151.1,360.8,151.1,360.9"/>
<path class="st0" d="M152,311.1c0.2,1.4-0.5,2-1.8,2.1C149.8,311.8,150.5,311.1,152,311.1"/>
<path class="st0" d="M158.1,369.6c0.1,0,0.3,0.1,0.2,0.2c0,0.2-0.1,0.1-0.2,0C158.1,369.7,158,369.7,158.1,369.6"/>
<path class="st0" d="M209.4,259.1c-0.5-0.2-0.2-0.4,0-0.5C209.4,258.7,209.4,258.9,209.4,259.1"/>
<path class="st0" d="M209.1,352c-0.2,0.1-0.3,0.1-0.5,0.2c0.1-0.2,0.1-0.3,0.2-0.5C208.9,351.8,209,351.9,209.1,352"/>
<path class="st0" d="M211,94.9c0.3,0.4,0.6,1,1,1.2c2,0.9,1.7,2.4,1.4,4.1c-0.1,0.6-0.2,0.9-0.8,1.2c-2.5,1.3-2.8,5-0.5,6.5
	c0.9,0.6,1.1,1.2,1.4,2c0.4,1,1,1.9,1.5,2.8c-0.1,0.1-0.2,0.2-0.3,0.3c-2.4,0-4.5,1-6.3,2.4c-0.5,0.4-0.8,0.3-1.3,0.1
	c-3.4-1.1-4.9-5.5-2.8-8.7c0.4-0.7,0.7-1.2,0.3-1.9c-0.6-1.1-1.7-2-1.4-3.6c0.1-0.6-0.8-1-1.5-0.9c-1.7,0.3-2.8-0.9-3.2-2
	c-0.3-0.9-0.1-2.5,0.9-3.4H211z"/>
<path class="st0" d="M215.4,237c1-0.1,1.3-1,1.7-1.6c2-3.4,5.1-5.7,8.6-7.4c1.4-0.7,1.7-1.6,1.7-2.9c0-1.3-0.2-2.5-0.6-3.6
	c-0.3-0.8-0.7-1.4-1.7-1.2c-1.3,0.3-1.1-0.4-0.9-1.2c0.3-1.4,1-2.6,0.8-4.1c-0.2-1.5-0.9-2.1-2.3-1.6c-1.8,0.8-2,0.7-2.4-1.3
	c-0.1-0.8-0.4-1.6-0.3-2.4c0.3-2.4-1.7-2.9-3.1-3.5c-0.7-0.3-1.7,0.5-2.8,0.5c-2.8-0.2-3-0.3-2.6-3.1c0.1-0.9,0.3-1.8-0.2-2.6
	c-1.1-1.7-0.7-3.5-0.1-5.2c0.5-1.3,1-2.7,1.2-4.1c0.4-2-0.4-3.6-2.2-4.4c-1.3-0.6-1.1-1.6-0.9-2.5c0.3-1.2-0.1-1.5-1.2-1.5
	c-1.3,0-2.6-0.2-3.9-0.3c-0.4,0-0.8-0.1-1.2-0.2c-0.2-0.1-1.4-4.7-1.4-5c0.7-3.6-0.3-5.5-4-5.5c-2.2,0.1-3.4-1.8-5.3-2.5
	c-1.6-0.5-2.7-2-4.7-1.5c-1,0.2-1.6-1-2.3-1.6c-2-1.6-3-3.7-2.1-6.4c0.7-2,0.2-2.5-1.9-2.5c-2,0-3.7,0.4-5.1,1.9
	c-1.5,1.5-3.8,1.4-5.3,3c-0.1,0.1-0.5,0-0.8-0.1c-1.5-0.3-3.1-0.3-4.6-0.2c-2.3,0.1-2.3,0.2-2.3-2.2c0-0.6,0-1.3,0.1-1.9
	c0.1-0.6,0.2-1.1-0.1-1.8c-0.7,0.5-1.5,0.8-1.8,1.6c-0.8,0.2-1.5,0.8-2.5,0.7c-0.9-0.1-1.6-0.1-1.9-1.2c-0.1-0.3-0.3-0.6-0.5-0.7
	c-2.7-2.2-3.6-3.4-5.2-6.3c-0.8-1.4-0.2-2.9,0.4-3.5c1.1-1.2,1.7-2.5,1.9-3.9c0.4-3,2.8-3.9,5-4.9c1-0.5,2.2-0.6,3.3-1.1
	c0.6-0.2,1.3-0.3,1.9,0c1.5,1,1.9-0.1,2.1-1.2c0.6-3.1,1.1-6.1,1.6-9.2c0.3-1.8,0.1-3.5-1.6-4.7c-1-0.6-0.8-1.7-0.6-2.6
	c0.3-0.9,1.2-0.9,2.1-0.8c0.5,0.1,1.1,0.3,1.2-0.5c0.1-0.6-0.1-1.2-0.8-1.4c-0.2-0.1-0.5-0.1-0.7-0.1c-0.8,0-1.5,0-1.4-0.8
	c0.1-1.3,1.4-0.7,2-0.7c1.6,0,3-0.4,4.7-0.4c0.6,0,1.1,0,1.6-0.5c0.3-0.3,0.5-1.1,1.2-0.7c0.5,0.3,1,0.9,0.8,1.5
	c-0.5,1.8,1.1,1.7,1.9,2.4c0.9,0.8,1.8,1.4,3,0.7c0.2-0.1,0.6-0.2,0.6-0.2c1.3,1.8,1.7,0,2.3-0.7c0.5-0.6,1.3-0.8,2-1.1
	c1-0.4,2.2-0.5,2.4-2c0.1-0.6,0.9-0.5,1.4-0.7c0.6-0.2,1.3-0.5,1.2-1.3c-0.1-0.8-0.8-0.6-1.3-0.6c-0.7,0-1-0.4-1.2-1
	c-0.4-1.2-0.8-2.5-1.5-3.6c-0.2-0.3-0.5-0.7-0.2-1c0.3-0.4,0.8-0.1,1.1,0c1.4,0.7,3.1,0.1,4.3,1.6c0.4,0.6,1-0.1,1-0.8
	c0-1.1,0.6-1.1,1.5-1.2c2.7-0.2,5.4-0.7,6.7-3.6c0.2-0.5,0.6-0.5,1-0.5c0.5,0,0.7,0.3,0.8,0.8c0,0.4-0.1,1,0.1,1.2
	c2.1,1.8,0.7,3.7,0.2,5.6c-0.8,3.2,1.2,6.6,4.4,7.5c0.3,0.1,0.9-0.1,1.1-0.3c2.6-2.4,5.6-2.7,8.9-2.2c0.5,0.1,0.9,0.1,1.1-0.5
	c0.5-1.6,2.4-2.5,3.8-1.7c1.4,0.8,2.7,1.6,4.4,0.6c0.2-0.2,0.7,0,1,0c2.5,0.5,2.5,0.4,3.6-1.7c0.8-1.6,1.7-3.1,2.7-4.5
	c0.3-0.4,0.7-1.1,1.4-0.9c0.7,0.2,0.9,0.9,0.9,1.6c-0.1,1.7,0.6,3.2,1.1,4.8c0.4,1.2,0.8,2.4,2.4,2.7c1.2,0.2,1.3,1.5,0.3,2.5
	c-1,1-2,2.1-3.1,2.9c-1.6,1.2-2.5,2.8-3.4,4.6c-0.3,0.7-0.8,1.2-1.7,1.4c-0.6,0.1-1.2,0.3-1.6,0.9c2.1,1.4,3.7-0.1,5.4-1
	c1.1-0.6,1.4-0.3,1.5,0.8c-0.3,0.2-0.5,0.5-0.8,0.6c-1.9,0.3-2,0.5-1.4,2.9c0.3-0.8,0.7-1.3,1.4-1.2c0.2,0.5-0.2,1.2,0.5,1.6
	c0.6-0.6,0.2-2.4,2-1.6c0.5,0.2,1.1-0.5,1.9-0.5c2.2,0,1.6,1,1.1,2.1c-0.1,0.2-0.2,0.4-0.4,0.7c1,0.2,1.1-0.5,1.3-1.1
	c0.4-1.8,1.6-2.5,3.3-2.8c0.8-0.1,1-0.8,1.1-1.4c0.2-1.4,1.1-2,2.4-2c0.4,0,0.9,0,1.3-0.1c0.2,0.1,0.5,0.2,0.7,0.3
	c0.1,0.6,0.4,0.9,1,0.8c0.1,0.1,0.1,0.1,0.2,0.2c1.2,0.6,2.4,1.5,3.9,1.4c0.4,0,0.8,0.3,0.9,0.7c0.1,0.3,0.3,0.6,0.7,0.6
	c2.1,0.1,2.7,1,2.2,3c-0.2,1-0.8,2-0.7,3.2c1-0.6,2-1.1,2.8-1.9c1.1-1,2.6-2.1,4-1.4c3.1,1.5,6.2,1.9,9.5,1.4
	c0.8-0.1,1.6,0.1,2.4,0.6c2,1.2,4.1,2.4,6.2,3.6c0.2,0.2,0.4,0.4,0.5,0.5c0,0.1,0,0.1,0.1,0.1c0.3,0.2,0.6,0.5,0.9,0.7
	c0.1,0.1,0.2,0.2,0.3,0.3c0.2,0.1,0.3,0.2,0.5,0.3c-0.1,0.4,0.1,0.6,0.4,0.9c1.6,1.5,3.6,1.4,5.6,1.3c1.5,0,2.7,0.3,2.8,2.1
	c0,0.4,0.3,0.7,0.4,1.1c0.9,3.3,1.6,6.6,0.1,9.9c-0.6,1.4-1.7,2.5-2.3,3.9c-0.2,0.3-0.4,0.6-0.7,0.8c-0.5,0.1-0.8,0.4-0.8,0.9
	c-0.2,0.3-0.4,0.6-0.6,0.8c-2.7,1-4.5,2.7-4.7,5.7c-0.1,0.2-0.2,0.5-0.4,0.7c-0.1,0.1-0.3,0.2-0.4,0.3c-0.8,1-1.2,2.7-3.2,1.8
	c-0.2-0.1-0.7,0.2-0.7,0.4c-0.4,1.3-1.5,2.4-1.3,4c0.3,1.9-0.1,3.8,0.2,5.8c0.2,1.1,0.5,2.2,0.2,3.5c-0.9,2.8-0.8,5.9-2.6,8.5
	c-0.5,0.7-0.3,1.5-0.3,2.2c0.1,1.3-0.1,2.5-1.1,3.6c-0.6,0.7-1.2,1.8-0.9,2.9c-0.1,0.2-0.3,0.5-0.4,0.7c-1.5,0.2-1.9,1.4-2.3,2.7
	c-0.3,1,0.2,2.7-0.8,3c-2.1,0.7-2.9,2.3-4.1,3.7c-0.8,0-1.5,0-2.3,0.1c-0.3,0-0.6,0-0.9,0c-0.3,0-0.6,0-0.9,0
	c-1.1-0.5-2.1-0.7-3.3-0.3c-0.2,0.1-0.5,0.1-0.7,0.2c-0.1,0.1-0.3,0.1-0.4,0.2c-0.1,0.1-0.2,0.1-0.3,0.2c-0.6,1.1-1.6,1.6-2.7,2.1
	c-1.3,0.6-3,0.4-4.1,1.6c-0.1,0.1-0.1,0.2-0.2,0.2c0,0-0.1,0.1-0.1,0.1c-0.1,0.1-0.2,0.2-0.3,0.3l0,0c-0.2,0.1-0.4,0.3-0.6,0.4
	c0,0-0.1,0.1-0.1,0.1c-0.2,0.1-0.3,0.2-0.5,0.3c-0.5,0.2-0.8,0.5-1,1.1c-0.2,0.1-0.3,0.2-0.5,0.3c-0.1,0-0.2,0-0.2,0.1
	c-0.2,0.1-0.3,0.1-0.5,0.2c-0.1,0-0.2,0-0.2,0.1c-0.2,0.1-0.3,0.2-0.5,0.3c-0.1,0-0.2,0-0.2,0.2c-0.1,0.1-0.1,0.1-0.2,0.2
	c-0.1,0-0.1,0-0.1,0.1c-0.1,0.1-0.1,0.2-0.2,0.2c-0.8,0.3-1.5,0.8-1.9,1.6c-0.1,0.3-0.2,0.6-0.3,0.9c-1.7,1.9-1,4.1-0.4,6.2
	c0,0.3,0,0.6,0,0.9c-0.6,1-0.2,2,0,3c-0.1,0.4-0.1,0.9-0.2,1.3c-0.1,0.1-0.1,0.3-0.2,0.4c-0.1,0.2-0.2,0.4-0.3,0.6
	c0,0-0.1,0.1-0.1,0.1c-0.1,0.1-0.2,0.2-0.3,0.3c0,0-0.1,0.1-0.1,0.1c-0.1,0.1-0.2,0.2-0.3,0.3c0,0-0.1,0.1-0.1,0.1
	c-0.1,0.1-0.2,0.2-0.3,0.3l0,0c-0.2,0.1-0.4,0.2-0.5,0.4c-0.1,0-0.2,0.1-0.1,0.2c-0.2,0.2-0.4,0.4-0.6,0.6c-1,0.2-1.4,1-1.5,1.9
	c-0.1,0.2-0.2,0.4-0.4,0.5c0,0-0.1,0.1-0.1,0.1c-0.1,0.2-0.2,0.4-0.3,0.6l-0.1,0.1c-0.1,0.2-0.2,0.4-0.3,0.6c0,0,0,0.1,0,0.1
	c-0.1,0.3-0.2,0.6-0.3,1c-0.4,0.2-0.7,0.4-1.1,0.7c-0.2-0.1-0.5-0.4-0.5-0.4c-1,0.8-1.8,0.4-2.5-0.9c-0.2,1.3-0.4,2.3-0.6,3.2
	c-0.2,1-0.6,1.8-1.6,2.4c-1.2,0.6-1.6,1.8-1.6,3.1c0,2.6-1.2,4.7-2.8,6.7c-0.3,0.3-0.6,0.8-1.1,0.7c-0.6-0.2-0.4-0.9-0.4-1.4
	c0-0.2,0-0.5,0.1-0.7c0.9-2.4,0.1-4.4-2.2-5.8c-1.9-1.2-3.5-3.1-5.3-3.9c-2.6-1-3.6-4.1-6.6-4.3c0-0.9,1.2-1.2,1-2.1l0,0
	C215.3,237.4,215.4,237.3,215.4,237L215.4,237z"/>
<path class="st0" d="M160.3,158.2c0.4-0.1,0.8-0.2,1.1-0.3c0,1.3,0,2.5,0,3.7c0,1.5,0.9,2.1,2.2,1.4c1.3-0.7,1.9-0.1,2.5,0.9
	c0.6,0.9,1.2,1.8,1.7,2.8c0.5,0.9,1,1.6,0,2.7c-0.7,0.8-0.3,2.1-0.3,3.2c0,1.3-0.4,2.4-0.9,3.6c-0.8,2-1.1,4.2,0.1,6.2
	c0.4,0.7,0.7,1.4,0.1,1.9c-1.5,1.2-1.6,3-2.2,4.6c-0.6,1.6-1.7,2-3.1,0.9c-1.1-0.9-2.1-1.8-3-3c-0.9-1.2-2.6-2.1-4.1-2.7
	c-3-1.2-5.9-2.8-8.7-4.5c-1.6-1-2.8-2.5-4.1-3.9c-0.6-0.7-1.1-1.6-0.6-2.7c0.2-0.5,0.1-1.1-0.2-1.7c-2.2-3.6-4.4-7.2-6.5-10.9
	c-0.7-1.3-1.1-2.8-1.6-4.2c-1.1-3.1-3.4-5.5-4.9-8.4c-0.8-1.6-2.6-1.9-4-2.9c-0.5-0.4-1.3-0.4-0.3-1.4c0.9-0.8-0.2-2-0.5-3
	c-0.2-0.7-1.2-1.3-0.7-2.2c0.6-1.2,1.3-2.3,2.5-3c0.3-0.2,0.6-0.5,0.9-0.1c0.2,0.3,0.3,0.9-0.2,1.1c-0.7,0.3-0.8,0.7-0.8,1.3
	c0,0.7,0,1.2,1.1,0.9c1.1-0.3,2.1,0,2.8,1.2c0.7,1.3,1.9,1.3,2.5,0.1c1.1-2,1.9-4.2,2.9-6.3l0,0c1.6-0.6,3.2-1,4.8-1.7
	c1.9-0.8,3.5-2,4.2-4.1l0,0c1-1.5,2.8-2.8,0.7-4.8c1.6-0.4,2.8,0.3,3.2,1.3c0.8,2.2,2.9,2.5,4.5,3.5l0,0c0,0.8,0.6,1.6,0.4,2.5
	c-0.1,0.8,0.7,0.9,1.4,1c1.8,0.2,3.6-0.2,5.3-0.6c1.7-0.4,2.9,0.4,4.2,1.1c0.4,0.2,0.6,0.5,0.3,1c-0.2,0.3-0.4,0.7-0.6,1
	c-0.4,0.7-1.2,1.3-1.2,2c-0.1,1.2,1.4,0.2,1.8,1c0.1,0.2,0.2,0.3,0.3,0.5c-3.6-0.3-6.6,1.3-9.5,3c-0.6,0.3-0.9,0.8-1.1,1.4
	c-0.6,1.9-0.9,3.9-2.5,5.5c-1.4,1.3-0.5,4.7,1.4,6.7c0.9,0.9,1.6,1.7,0.4,2.8c0.8,0.5,1.5,0.2,2.1,0.3c0.7,0.1,1.2,0.4,1.5,1
	C156.5,159.7,159.3,159.7,160.3,158.2"/>
<path class="st0" d="M211.2,250.1c-0.3-0.7-0.1-1.2,0.1-1.6c0.5-1.4,0.9-2.9,1-4.4c0.1-1,2.2-2.7,3-2.2c1.2,0.7,2.6,1.5,2.8,3
	c0.1,1.3,0.6,0.9,1.2,0.6c0.4-0.2,0.7-0.5,1.1,0c1.3,1.6,3.1,2.5,4.8,3.6c1.1,0.7,1.7,1.9,2.4,3.1c0.2,0.3,0.2,0.7-0.1,0.9
	c-1,0.8-0.8,1.9-0.7,2.9c0.3,3.2-2.8,5.9-5.9,5.1c-0.6-0.2-1.3-0.3-1.8-0.1c-1.5,0.7-2.6,0.1-3.8-0.8c-0.6-0.5-1.3-0.6-2.1-0.7
	c-2.3-0.2-3.8-2.4-3.2-4.5c0-0.1,0-0.3,0-0.3C212.4,253.5,210.4,251.4,211.2,250.1"/>
<path class="st0" d="M224.9,100.6c-0.8,0-1,0.6-1.1,1.2c-0.1,1.3,0,2.7,0.8,3.8c0.8,1.1,0.8,1.9,0.4,3.2c-0.5,1.8-0.7,3-3,2
	c-0.9-0.4-2.2,0.1-3.3,0.4c-1,0.3-0.8,1.2-0.4,2c-2.3-0.2-4.1-1.9-4.4-4.2c-0.1-0.8-0.2-1.3-1.2-1.6c-1.2-0.4-1.6-1.8-1.7-2.9
	c0-1,0.3-2,1.5-2.4c1-0.3,1.3-0.9,1.4-2c0.2-2.1,0.8-2.3,3-1.8c2,0.5,3.9-0.2,5.9,0c0.9,0.1,1.9-0.2,2.5,0.4
	C226.1,99.2,224.8,99.9,224.9,100.6L224.9,100.6z"/>
<path class="st0" d="M224.9,100.6c0.1,0,0.1,0,0.2,0c0.9-0.3,1.1-2.2,2.8-1.1c0.9,0.6,2.1,0.7,3.1,1.4c1.2,0.9,2.2,2.1,3.3,3
	c0.5,0.4,0.2,0.8-0.1,1.3c-1.2,1.8-2.3,3.7-3.3,5.7c-0.4,0.9-1,1.6-2.2,0.7c-0.6-0.5-1.5-0.2-2.2,0.1c-0.6,0.3-1.3,0.6-2.3,0.2
	c1.4-1.1,1.2-2.9,1.9-4.3c0.3-0.6,0.2-1-0.2-1.4C224.2,104.5,224.2,102.6,224.9,100.6L224.9,100.6z"/>
<path class="st0" d="M215,112.6c0,0.1,0.1,0.2,0.1,0.4c-0.1,0-0.3-0.1-0.4-0.1C214.9,112.8,215,112.7,215,112.6"/>
<path class="st0" d="M167.5,117.3c0.1,0.1,0.2,0.3,0,0.4c0,0-0.2-0.1-0.3-0.2C167.3,117.4,167.4,117.4,167.5,117.3"/>
<path class="st0" d="M169.8,195.1c-0.9-1.3-0.8-3.1-1.6-4.4c-1.3-2.3-2-4.2,0.4-6.1c0.2-0.2,0.1-1.1-0.1-1.3c-1.6-1.5-0.8-3.4-1-5.2
	c0-0.2-0.1-0.4,0-0.5c1.7-2.1,0.6-5,1.6-7.1c1.3-2.7-0.2-4.2-1.3-6c-0.2-0.4-0.8-0.9-0.5-1.4c0.3-0.4,1-0.3,1.5,0
	c1,0.5,1.9,0.3,2.5-0.6c0.8-1.2,2.3-0.7,3.3-1.6c1.9-1.6,3.9-3,6.7-2.6c0.8,0.1,0.9,0.3,0.8,0.8c0,0.5-0.2,1-0.3,1.5
	c-0.5,2.7,1.6,6.9,4.2,8c0.5,0.2,1.1,0.6,1.7,0.3c0.7-0.4,1.3-0.1,1.8,0.3c1.8,1.3,4.2,1.7,5.8,3.4c0.6,0.6,1.5,0.3,2.2,0.3
	c2.9,0,4.3,2,3.2,4.8c-0.2,0.6-0.6,1-0.1,1.6c0.9,0.9,1.2,2.1,1.1,3.3c-0.1,0.9,0.5,1.1,1.2,1.1c1.4,0,2.9,0,4.3,0
	c0.8,0,1.3,0,1.1,1.2c-0.3,1.3-0.1,2.6,1.6,3.2c1.4,0.5,1.8,2.1,1.7,3.3c-0.2,1.7-0.7,3.4-1.6,4.9c-0.3,0.5-0.6,0.9-1.2,0.5
	c-3.4-2.5-6.9-1-10.5-0.6c-2.5,0.3-3.4,1.7-3.8,3.8l0,0c-0.7,0-0.7,0.5-0.7,1c0.1,1.5-0.6,2.9-0.9,4.3c-0.2,0.9-0.5,1-1.4,0.9
	c-2-0.1-4.6-0.9-5.2,2.3c0,0-0.2,0.1-0.3,0.1c-0.2-1.4-1-2-2.5-2c-1.4,0-2.8-0.1-4-1.1c-0.3-0.2-0.8-0.3-0.9,0
	c-0.5,1.8-2.8,1.9-3.5,3.6c-0.3,0.6-1,0.8-1.7,0.7c-0.7-0.2-0.4-0.9-0.6-1.4c-0.9-2.5-1-5.4-2.8-7.6c-0.5-0.6-0.3-1.3-0.1-2.2
	C170.4,197.6,171.9,195.9,169.8,195.1L169.8,195.1z"/>
<path class="st0" d="M194.9,199.8c0.3-0.3,0.8-0.5,0.9-0.9c0.5-2.1,2.1-2.2,3.8-2.4c0.9-0.1,1.7-0.4,2.6-0.6
	c2.7-0.6,5.2,0.1,7.4,1.6c0.1,0.1,0.4,0.3,0.3,0.4c-0.2,2.6,2.1,4.8,0.9,7.5c-0.5,1.1,0,1.6,1.4,1.9c2,0.4,4-0.4,6,0.4
	c0.7,0.3,1.2,0.5,1.3,1.4c0.1,1.4,0.4,2.7,0.6,4c0.3,1.7,1.2,2.2,2.6,1.4c1.6-0.9,1.9,0,2,1.3c0.1,0.7-0.1,1.3-0.3,1.9
	c-0.7,1.8-1.3,3.7-1.1,5.7c0.1,1.1-0.4,1.9-1.3,2.6c-0.3,0.2-0.7,0.5-1,0.8c-2.6,2.4-5.5,2.7-8.8,1.7c-1.8-0.5-3.3-0.4-2-3.1
	c0.6-1.2,0.9-2.7,1.9-3.6c0.8-0.8,0.7-1.4,0-2.1c-0.9-1-2.2-1.4-3.4-1.8c-0.7-0.2-1.4-0.4-1.9-0.8c-1.8-1.5-3.7-2.7-6.1-2.9
	c-1.2-0.1-1.6-1.5-2.8-1.8l0,0c-1.3-1.4-2.7-2.8-3.9-4.4c-0.3-0.5-0.7-0.9-0.4-1.4C194.4,204.3,194.4,202,194.9,199.8L194.9,199.8z"
	/>
<path class="st0" d="M134,132.1c-1.6,0.7-1.8,2.2-2.3,3.6c-0.2,0.5-0.3,1.1-0.5,1.5c-0.2,0.5-0.5,1.1-1.1,1.1
	c-0.6,0-0.8-0.6-1.1-1.1c-0.6-1.4-2.2-0.8-3.4-1.4c0.9-0.6,1.4-1.3,0.9-2.3c-0.2-0.4,0.4-0.6,0.6-0.9c0.9-1.3,1.3-2.7,0.5-4.3
	c-0.3,0.7,0.1,1.7-0.9,2c-0.8,0.3-1.2-0.4-1.7-0.7c-0.4-0.2-0.7-0.6-0.4-1.1c0.3-0.6,0-1.1-0.2-1.7c-0.2-0.9-0.4-1.6,0.7-2.6
	c1.2-1.1,2.2-2.8,2-4.7c-0.1-1,0.2-1.2,1-1.6c1.3-0.6,2.6-0.9,4-1.1l0,0c1.2,1.4,3.2,1.6,4.5,3.1c0.6,0.8,2.2,1,3.1,0.4
	c1.3-0.9,2,0,2.4,0.7c0.8,1.3,2.3,2.6,0.8,4.3c-0.2,0.3-0.1,0.7-0.2,1.1l0,0c-2.1,2.4-4.6,4-7.7,4.8
	C134.4,131.3,134,131.6,134,132.1L134,132.1z"/>
<path class="st0" d="M215.3,237.7c0,0.3-0.1,0.4-0.4,0.4C215,237.9,215.2,237.8,215.3,237.7"/>
<path class="st0" d="M97.6,52.8c-0.4,1.6-0.7,3.2-0.7,4.9c0,1-0.2,2-1.4,2.3c-0.2,0.1-0.3,0.3-0.5,0.4c-0.3,0.2-0.4,0.8-0.9,0.5
	c-0.4-0.2-0.2-0.6-0.2-0.9c0.3-1.8,0.2-3.7,0.2-5.5c0-0.6,0.1-1,0.8-0.9c0.6,0,0.8-0.4,0.8-0.9H97.6z"/>
<path class="st0" d="M139,91.7c0.2,0.1,0.3,0.2,0.3,0.4c0,0.4,0.2,0.5,0.6,0.5c0.4-0.1,0.4-0.4,0.4-0.8c0-0.2,0-0.4-0.1-0.5
	c-0.2-0.9,0-1.5,0.8-1.9c0.5-0.2,0.9-0.6,1.1-1.2c0.1-0.5,0.5-0.8,1-0.8c0.9,0,1.3-0.5,1.2-1.4c0-0.5,0.2-1.1,0.2-1.7
	c-0.1-1.6,1-2.2,2-2.9c0.4-0.3,0.7,0.2,0.9,0.4c1,0.9,1.3,0.8,1.5-0.4c0.2-1,0.4-1.2,1.4-0.9c0.9,0.3,2,0.2,2.8-0.7
	c0.5-0.6,1.1-0.9,1.9-1.1c0.8-0.2,1.5-0.8,2.1-1.4c0.3-0.3,0.6-0.6,1-0.7c0.6-0.2,1.1-0.2,1.4,0.4c0.4,0.7-0.2,0.8-0.6,1.1
	c-0.1,0.1-0.2,0.2-0.4,0.2c-2.6,0.5-3.9,2.6-4.9,4.7c-0.7,1.5-1,3.2-1.9,4.7c-0.3,0.5,0.2,0.6,0.5,0.4c1.1-0.6,1.3,0.1,1.8,1
	c0.7,1.5,1.1,2.9,0.9,4.6c-0.1,0.9,1.9,2.4,2.9,2.3c1-0.1,2-0.3,3-0.3c1.7,0,3.3,0.6,4.1,2.3c0.7,1.2,1.6,1.4,2.9,1.1
	c1.3-0.3,2.7-0.4,4-0.5c0.5-0.1,0.8,0.1,0.7,0.7c-0.1,0.3-0.1,0.6-0.3,0.8c-1.3,1.6-0.9,3.6-0.7,5.4c0.1,0.9,0.4,1.9,1.3,2.5
	c0.4,0.3,0.6,0.7,0,1.1c-0.5,0.3-0.9,0.8-1.3,1.2c-0.2,0.2-0.2,0.4-0.2,0.6c0.1,0.4,0.3,0,0.5,0c0.8,0.3,1.3,0.9,1.7,1.6
	c0,0.1,0,0.3-0.1,0.3c-0.9,0.1-1.4,0.8-2,1.2c-0.2,0.2-0.5-0.1-0.7-0.3c-0.3-0.3-0.7-0.2-0.8,0.2c-0.2,0.7-0.6,0.6-1.1,0.6
	c-1.2,0-2.4,0.1-3.6,0c-0.9,0-1.1,0.3-1,1.1c0,0.3,0,0.5,0,0.8c-0.1,0.6,0.2,0.9,0.8,0.8c0.3,0,0.6,0,0.9,0c0.4,0,0.7,0.2,0.7,0.6
	c0,0.5-0.4,0.3-0.7,0.3c0,0-0.1,0-0.1,0c-0.8,0.2-1.8-0.1-2.2,0.8c-0.5,1.2,0.1,2.8,1,3.5c1.1,0.9,1.3,2.3,1.1,3.5
	c-0.5,2.9-1.1,5.7-1.5,8.6c-0.1,0.7-0.4,0.5-0.7,0.2c-0.4-0.5-0.8-1.1-1.7-0.7c0.6-1,1.2-2,1.8-3c0.4-0.6,0.2-0.9-0.3-1.3
	c-2.1-1.5-4.3-1.7-6.7-0.8c-1.1,0.4-2.1-0.1-3.2,0c-0.3,0-0.4-0.3-0.4-0.6c0.1-1.8-1.1-2.8-2.4-3.6c-0.9-0.5-1.7-1-2.2-2.1
	c-0.5-1.1-1.8-1.9-3.3-2c-0.8,0-1.3-0.5-1.9-1c-0.7-0.6-1.4-1.1-2.3-0.2c-0.6,0.6-2.8-0.1-3.3-1c-0.4-0.7-0.9-1-1.6-1.2
	c-1.4-0.3-2.3-1.4-3.4-2.2c-0.4-0.3-0.1-0.6,0.2-0.8c0.5-0.3,1-0.5,0.8-1.3c-0.1-0.5,0.6-0.8,1.1-0.9c0.5-0.2,1-0.3,1.5-0.4
	c0.2-0.1,0.5-0.1,0.5-0.3c0.1-1.5,1.4-2.3,1.8-3.6c0.1-0.3,0.3-0.7,0.6-1.1c-0.5,0.1-1,0.2-1.1-0.4c-0.1-0.7,0.7-0.5,1-0.9
	c-0.6,0.1-0.8-0.1-0.8-0.8c0.1-0.8-0.1-1.6-0.2-2.4c-0.1-0.5-0.1-1,0.3-1.5c0.1-0.1,0.2-0.3,0.2-0.4c-1.2-1.5,0.2-3.7-1.7-5
	c-0.8-0.5-0.5-1,0.4-1.3c1-0.3,1.4-1,1.5-2C138.8,91.8,138.9,91.8,139,91.7"/>
<path class="st0" d="M152.4,85.9c0.8-1.5,1.3-2.8,1.6-4.1c0.3-1.5,1.6-2.5,2.7-3.7c0.3-0.3,0.4-0.1,0.6,0.2c1.4,2,1.4,2.6-0.2,4.7
	c-0.7,0.9-0.5,1.9,0.5,2.5c0.1,0.1,0.3,0.2,0.3,0.3c0,1.1,0.7,1.2,1.5,1c0.9-0.2,1.6-0.8,1.6-1.8c0.1-0.8-0.1-1.5-0.7-2.1
	c-0.3-0.4-0.7-0.8-0.9-1.2c-0.6-1.1-0.3-1.4,0.7-2.1c1.3-0.8,2.9-1.1,4.3-1.5c1.7-0.4,3.6-0.9,5.4,0.3c0.7,0.4,1.1,0.9,1.1,1.7
	c0,1,0.5,1.5,1.7,1.5c1.9,0,3.6-0.6,5.5-0.5c0.5,0,1,0.1,1.4,0.5c1.6,1.6,4,1.9,6,0.8c0.6-0.4,1.3-0.6,2-0.6c0.4,0,1.4,0.4,1.3-0.7
	c0,0,0.3-0.1,0.4-0.1c0.9-0.1,1.7-0.2,2.6-0.2c0.8,0,1.7,0,2.6,0c-0.9,0.9-2.2-0.3-3,0.6c0.7,0.9,1.5,1.7,2.1,2.7
	c0.3,0.5,0.8,1.1,1.3,0.1c0.2-0.4,0.5-0.4,0.7,0.1c0.2,0.6,0.5,0.7,0.9,0.3c0.5-0.4,0.8,0,1.1,0.2c0.9,0.5,1.1,1.1,0.8,2
	c-0.3,1.1-0.6,2-2.2,1.6c0.8,0.6,1.4,1.4,2.5,0.6c0.4-0.3,0.9-0.3,1.4-0.2c0.4,0.1,0.8,0.2,1.2-0.1c0.4-0.2,0.9-0.3,1.1,0.2
	c0.2,0.4,0.5,0.8-0.1,1.2c-0.5,0.3-0.8,0.8-1.4,1c-0.8,0.3-1,1-0.9,1.7c0.1,0.7,0,1.6,1.3,1.4c-0.8,0.5-1.5,0.7-2.2,0.9
	c-0.8,0.2-1.4,0.5-1,1.4c0.2,0.5-0.1,0.8-0.4,1.1c-0.5,0.6-0.4,1,0.1,1.5c0.7,0.7,1.3,1.4,2,2.1c0.4,0.4,0.4,0.8,0,1.2
	c-1.7,1.5-3.6,2.4-5.9,2.2c-1.2-0.1-1.8,0.4-1.9,1.6c0,0.1,0,0.3-0.1,0.4c-0.2,0.1-0.4,0-0.5-0.1c-0.7-1.2-1.9-1.1-3.1-1.2
	c-1-0.1-2-0.6-3-0.9c-0.3-0.1-0.7-0.4-0.9-0.1c-0.3,0.4,0,0.7,0.3,1c1.1,1.1,1.8,2.4,2.3,3.8c0.1,0.2,0.2,0.4,0.2,0.6
	c0,1.2,0.3,1.9,1.7,1.6c0.2-0.1,0.6,0,0.6,0.4c0,0.3-0.2,0.4-0.5,0.4c-0.4,0.1-0.7,0.2-1.1,0.3c-0.5,0.1-1,0.3-0.9,1
	c0,0.6-0.3,0.8-0.9,1c-1.5,0.5-3.1,0.9-3.9,2.7c-0.6-1.3-1.5-1-2.2-0.4c-0.7,0.5-1.2,0.3-1.9-0.1c-1.6-1-1.7-2.7-2.2-4.3
	c-0.4-1.1-0.9-1.9-1.8-2.6c-0.5-0.3-0.5-0.5,0-0.9c1.5-1.3,1.5-1.3,0.1-2.8c-0.4-0.4-0.7-1-0.7-1.5c-0.1-1.7-0.6-3.5,0.5-5.2
	c0.4-0.6,1-1.5,0.5-2.2c-0.5-0.6-1.4-0.3-2.2-0.1c-1.4,0.2-2.9,0.3-4.3,0.5c-0.5,0.1-0.8-0.1-1.1-0.5c-0.3-0.4-0.7-0.8-0.9-1.2
	c-1.2-1.9-3-2.1-5-1.9c-1,0.1-2,0.1-2.9,0.1c-0.1,0-0.2,0-0.2,0c-1-0.2-2.2-2.2-1.8-3.2c0.2-0.5,0.2-1.2-0.1-1.4
	c-0.9-1-1-2.3-1.8-3.3C153.6,85.6,153.2,85.4,152.4,85.9"/>
<path class="st0" d="M215.4,112.9c-2.7-1-4.4,0.9-6.5,1.4c-0.1,0-0.2,0.1-0.3,0.1c-0.4,0.2-0.3,1.1-1,0.9c-0.8-0.3-1.7-0.5-2.4-1.2
	c-1.9-1.9-2.5-4.8-1.4-7.1c0,0,0-0.1,0-0.1c1.7-1.1,0.7-2.1,0-3.1c-0.5-0.7-0.9-1.2-0.7-2.2c0.2-0.6-0.4-1.2-1.1-1
	c-2,0.5-2.8-1-3.8-2c-0.1-0.1-0.2-0.2-0.2-0.3c0-0.1,0-0.4,0.1-0.4c1.1-0.7-0.1-2.9,2.1-2.8c0.3,0,0.7-0.2,1-0.3
	c0.4-0.2,0.7-0.5,0.7-0.9c0-0.5-0.4-0.5-0.7-0.6c-0.6,0-0.6-0.3-0.6-0.8c0-0.5,0-1,0.6-1.1c1-0.3,1.6-0.9,2-1.8
	c0.2-0.5,0.5-0.3,0.7-0.2c1.8,0.6,3.1,2,4.3,3.3c0.4,0.4,0.3,1,0,1.4c-0.4,0.6-0.2,1.3-0.5,1.9c-0.1,0.2-0.1,0.5,0.2,0.5
	c0.2,0,0.3-0.2,0.4-0.4c0.1-0.5,0-1.3,0.7-1.3c0.7-0.1,1.4,0.2,2,0.8c0.6,0.5,1,1.2,1.9,1.5c0.4,0.1,0.5,0.6,0.5,1
	c0.1,0.9-0.5,1.7-0.3,2.7c0.1,0.4-0.5,0.5-0.9,0.7c-1.9,1-2.6,2.6-1.5,4.5c0.4,0.7,0.4,2.1,2,1.8c0.1,0,0.2,0.1,0.2,0.2
	c0.2,0.9,0.2,1.7,0.8,2.5C214.3,111.2,214.8,112,215.4,112.9"/>
<path class="st0" d="M100.7,72.5c0.5,0.5,1.2,0.4,1.7-0.2c0.4-0.5,1.4-0.6,1-1.6c-0.1-0.3,0.1-0.5,0.4-0.6c0.5-0.1,1-0.2,1.4-0.6
	c0.1-0.1,0.3-0.2,0.5-0.1c0.7,0.7,1.2,0.1,1.6-0.3c0.4-0.4,0.9-0.8,1.3-1.3c0.3-0.4,0.8-0.7,1.2-0.6c1.4,0.2,2.6-0.4,3.9-0.9
	c0.4-0.2,0.6-0.2,0.8,0.4c0.3,0.9,0.3,1.7-0.3,2.5c-0.3,0.4-0.5,1-0.5,1.4c0.3,2.1-0.9,4.1-0.7,6.1c0.1,0.5-0.3,0.7-0.4,1.1
	c-0.1,0.3,0,0.7,0.1,1c0.1,0.3,0.6,0.5,0.3,0.8c-0.3,0.3-1,0.3-1.2-0.1c-0.6-0.8-1.4-0.7-2.2-0.6c-0.2,0-0.4,0-0.5,0
	c-2.1-0.6-4.1-1.3-5.4-3.1C102.7,74.7,101.6,73.6,100.7,72.5"/>
<path class="st0" d="M110.3,66.1c-1,0-1.9,0.1-2.4,1c-0.3,0.5-0.8,0.8-1.3,1.1c-0.2,0.1-0.4,0.3-0.4,0.2c-1.3-0.9-1.9,0.8-3.1,0.6
	c-0.3,0-0.5,0.3-0.4,0.5c0.6,1-0.6,1.1-1,1.6c-0.2,0.3-1-0.1-1-0.6c0-0.1,0.2-0.4,0.1-0.4c-1.2,0-0.9-0.9-1.2-1.5
	c-0.3-0.4-0.9-0.4-1.4-0.3c-1.6,0.2-2.5-0.8-3.5-1.5c-0.4-0.3,0.1-1.7,0.6-1.9c0.7-0.3,1.2-0.8,1.8-1.3c0.6-0.5,1.4-0.6,2-1.2
	c0.2-0.2,0.5-0.1,0.8,0c1.6,0.6,3.2,0.5,4.8,0.1c0.9-0.2,1.7-0.4,2.7-0.3c1.1,0.1,2.2-0.2,3.3,0.2c0.4,0.2,1.2,0,0.8,0.9
	c-0.2,0.5,0.9,1,1.6,0.8c0.6-0.2,1.1,0,1.3,0.5c0.2,0.5-0.4,0.4-0.7,0.5c-0.8,0.4-1.6,0.7-2.5,0.8C110.8,66.1,110.6,66.1,110.3,66.1
	"/>
<path class="st0" d="M86.6,57.1c0.9,0.2,0.9-0.5,0.9-1.1s0.2-0.8,0.8-0.8c1.2,0,2.5,0,3.7,0c0.6,0,0.8,0.3,0.7,0.8
	c-0.1,1.6-0.1,3.2-0.2,4.7c0,0.6,0.1,0.9,0.7,0.9c0.6,0,1.2,0.2,2,0.3c-0.6,0.8-1.3,1.4-2,1.8c-0.6,0.3-0.8,0.8-0.8,1.3
	c0,1-0.7,1.4-1.3,2.1c-1,1.1-1.9,1-3.2,0.9c-1.6-0.1-2.7-0.9-3.8-1.7c-0.4-0.3-0.2-0.6-0.2-0.9c0-1.3,0.1-2.5,0.8-3.6
	c0.3-0.5,0.7-0.8,1.3-0.8c0.8,0.1,1.6,0,2.5,0c0.6,0,0.7-0.2,0.6-0.8c-0.2-1-0.7-1.9-1.6-2.3C87,57.8,86.8,57.6,86.6,57.1"/>
<path class="st0" d="M135,90.2C135,90.1,135,90.1,135,90.2c-0.1-0.1-0.1,0-0.2,0C134.9,90.2,134.9,90.2,135,90.2
	C135,90.2,135,90.2,135,90.2 M133.7,88.9c-0.7,0.5-0.9-0.2-1.3-0.6c-1-1.4-2.1-1.6-3.6-0.7c-0.1,0-0.2,0.1-0.2,0.1
	c-0.5,1.2-1.4,2-2.6,2.3c-0.3,0.1-0.4,0.6-0.1,1c0.2,0.2,0.3,0.3,0.5,0.5c1.1,1.2,1.1,1.2-0.4,1.8c-0.2,0.1-0.4,0.3-0.6,0.3
	c-0.5,0.2-0.9,0.4-1-0.5c0-0.4-0.3-0.7-0.4-1.1c-0.1-0.3-0.1-0.6-0.5-0.7c-0.5-0.1-0.3,0.4-0.5,0.6c-0.6,0.4-1.1,0-1.2-0.4
	c-0.5-1.9-2.1-1.7-3.4-1.9c-1.1-0.2-1.4-0.4-0.9-1.5c0.3-0.5,0.3-0.8-0.2-1.2c-0.4-0.3-0.5-0.9-0.1-1.2c0.4-0.3,1-0.3,1.4,0.2
	c0.2,0.3,0.3,0.7,0.6,1c0.4,0.4,0.7,1.3,1.4,0.3c0.2-0.3,0.4,0,0.5,0.1c0.9,1.2,2.1,1,3.1,0.5c1.1-0.6,2.4-0.7,3.3-1.5
	c1.3-1.2,2.6-0.8,4.2-0.6c2.2,0.3,3.8,1.4,5.1,3c0.5,0.6,0.8,1.6,0.8,2.5c0,0.5-0.4,1.1-0.9,1c-0.7-0.1-1.1,0-1.2,0.8
	c0,0.2-0.3,0.2-0.5,0.1c-1-0.4-1.4-2.4-0.6-3.2c0.3-0.3,0.5-0.4,0.4-0.8C134.5,88.8,134.2,88.9,133.7,88.9"/>
<path class="st0" d="M108.1,82.7c0.1,0.5,0.3,0.9,0.8,1.2c0.3,0.1,0.5,0.3,0.2,0.6c-0.2,0.3-0.4,0.3-0.7,0c-0.3-0.4-0.7-0.5-1.2-0.6
	c-0.8-0.2-1.2-1.2-0.9-2c0.1-0.3,0.2-0.6,0.2-0.9c0.1-1.8,0.3-1.8,1.9-1.1c0.6,0.3,1.2,0.5,1.9,0.2c0.5-0.2,1-0.1,1.4,0.4
	c0.3,0.4,0.8,0.6,1.3,0.5c0.9-0.2,1.4,0.4,1.8,1c0.3,0.5,0.7,1,1.1,1.4c0.6,0.6,1.3,1.1,0.5,2.1c-0.2,0.2-0.1,0.7,0.1,1
	c0.6,0.9,0.3,1.8,0,2.8c-0.6-0.5-0.9-1.5-1.9-1.3c-0.2,0-0.2-0.2-0.2-0.3c0-1-0.7-1.5-1.5-1.9c-1-0.5-1.9-1.1-2.7-2.1
	c-0.5-0.6-1.3-1.1-2.1-1.3c-0.1-0.1-0.1-0.3-0.2-0.2C107.8,82.5,108,82.6,108.1,82.7"/>
<path class="st0" d="M97.4,71.6c-1.1-0.3-2.4-0.1-3.5-0.9c-0.5-0.4-1.2-0.3-1.9-0.4c-0.5-0.1-1-0.3-1.1-0.7
	c-0.2-0.5,0.4-0.8,0.7-1.1c0.4-0.3,0.9-0.4,1.2-0.8c0.3-0.4,0.6-0.4,1-0.1c0,0,0.1,0,0.1,0.1c1.3,1,2.6,2,4.3,1.7
	c0.7-0.1,0.7,0.3,0.5,0.8C98.3,71.7,98.3,71.7,97.4,71.6"/>
<path class="st0" d="M195.4,83.2c0.8-0.3,0.7-0.9,0.6-1.4c-0.2-1.3,0.9-1,1.4-1c0.7,0,0.2,0.6,0.2,0.9
	C197.8,83.5,196.4,83.1,195.4,83.2"/>
<path class="st0" d="M164.9,76.3c0.1,0.8-0.1,1-0.6,1.1c-0.5,0-0.7-0.2-0.7-0.7c0-0.5,0.2-1.1,0.8-1.1
	C164.9,75.7,164.8,76.2,164.9,76.3"/>
<path class="st0" d="M138.2,90.8c-0.1-0.2-0.3-0.4,0-0.5c0,0,0.2,0.2,0.3,0.3C138.3,90.7,138.2,90.8,138.2,90.8"/>
<path class="st0" d="M163.9,135.7c0.1,0,0.3,0.1,0.3,0.2c-0.1,0.2-0.3,0.1-0.4,0C163.8,135.8,163.8,135.8,163.9,135.7"/>
<path class="st0" d="M128.6,127.8c0-0.1,0-0.2,0-0.3l0.1,0.1C128.7,127.6,128.6,127.7,128.6,127.8L128.6,127.8z"/>
<path class="st0" d="M135,90.2C135,90.2,135,90.2,135,90.2c-0.1,0.1-0.1,0-0.2,0C134.9,90.1,134.9,90.1,135,90.2
	C135,90.1,135,90.1,135,90.2"/>
<path class="st0" d="M108.1,82.7c-0.1-0.1-0.2-0.3-0.1-0.3c0.2-0.1,0.2,0.1,0.2,0.2C108.2,82.7,108.1,82.7,108.1,82.7"/>
<path class="st0" d="M84.4,55.3c0.7,0.9,1.3,1.4,2,1.8c0.2,0.1,0.7,0.2,0.8,0.4c0.4,0.5,1.3,1.6,1,2.1c-0.1,0.6-1.7,0.3-2.2,0.2
	c-1.9-0.3-2.8,0.3-3.5,1.7c-0.4,0.9-0.3,2-0.5,2.8c-0.3,0-0.5-0.3-0.7-0.6c-1.2-1.6-2.9-2.7-4.4-4c-0.9-0.7-2.1-0.7-3-1.4
	c-0.4-0.3-0.8,0.1-1.1,0.4c-1.1,1.3-2.8,1.5-4.3,2.1c-0.5,0.2-1.1,0-1.6-0.3c-0.7-0.5-1.5-0.7-2.4-0.6c-0.2,0-0.5,0-0.6-0.1
	c-0.9-0.9-2.3-0.7-3.1-1.8c-0.1-0.1-0.2-0.1-0.4-0.1c-1.6-0.2-2.9-0.9-4.4-1.4c-1.5-0.6-2.8-1.3-4.2-2c-0.1,0-0.2-0.1-0.2-0.2
	c-0.9-1.6-2.7-1.2-4.1-1.7c-1.1-0.4-2.3-0.6-3-1.7c-0.7-1.1-2.1-1.5-3.2-2c-1.7-0.7-2.5-2.2-3.3-3.7c-0.3-0.5,0.2-0.5,0.6-0.6
	c0.8-0.2,0.9-0.4,0.4-1c-0.2-0.2-0.2-0.3-0.1-0.6c0.4-1,0.6-1.9-0.3-2.8c-0.4-0.5-0.6-1.1-0.6-1.8c0-0.8-0.4-1.6-1-2.1
	c-1.7-1.6-3-3.6-4.8-5.2c-0.5-0.4-1-0.8-1.5-1.2c-0.5-0.4-1.1-0.6-0.6-1.5c0.2-0.3-0.3-0.5-0.5-0.5c-1.2-0.5-2.2-1.4-3.4-1.8
	c-0.4-0.1-0.8-0.4-0.8-1c0.1-0.5,0.2-0.9,0.8-0.9c0.2,0,0.3-0.1,0.3-0.3c0.1-0.5-1.3-2-1.7-1.9c-0.7,0.2-0.9-0.2-1-0.7
	c-0.1-0.4-0.2-0.7-0.7-0.7c-1-0.1-1.7-1.1-1.4-2c0.2-0.9-0.3-0.9-0.8-0.9c-1,0.1-1.5-0.4-2-1.2c-0.5-0.9-1.6-1.3-2-2.3
	c-0.8-1.7-2.3-3.2-2.6-5.1c0-0.3-0.2-0.6-0.3-0.8c-0.5-0.6-0.8-1.3-0.6-2.1c0-0.2-0.1-0.7-0.2-0.7c-1-0.3-1.6-1.1-2.4-1.6
	c-0.1,0-0.1-0.1-0.2,0C9,4.5,8.3,3.3,7.2,2.8C7,2.7,6.8,2.5,6.5,2.8C7.4,3.3,7.1,4.1,7,4.9C6.9,5.5,6.9,6.1,7.4,6.6
	c0.5,0.5,0.5,1.3,0.4,1.9C7.4,9.7,8.1,10.4,8.9,11c1.7,1.3,3.1,2.9,4.3,4.6c0.3,0.4,0.5,0.9,0.6,1.4c0.2,1.6,1.1,2.8,2.3,3.9
	c0.4,0.3,0.4,0.7,0.6,1.1c0.3,0.5,0.3,1.2,1.2,1c0.3-0.1,0.4,0.3,0.4,0.6c0.3,1.6,1,3,1.8,4.3c0.4,0.6,0.6,1.3,0.6,2.1
	c0,0.8,0.4,1.3,1.1,1.7c0.2,0.1,0.5,0.3,0.7,0c0.3-0.7,0.6-0.2,0.9,0c0.7,0.6,1.1,1.3,1.6,2c0.3,0.4,0.3,0.8,0,1.2
	c-0.4,0.5-0.8,0.9-1.4,1c-0.4,0.1-0.5-0.5-0.5-0.8c-0.2-0.9-0.7-1.5-1.4-2c-1.7-1.3-3.4-2.6-5.1-3.8c-0.4-0.3-0.3-0.7-0.2-1.1
	c0.6-2,0-3.5-1.8-4.5c-0.5-0.3-0.9-0.6-1.3-1c-1-0.9-2.4-0.9-3.4-1.8c-0.8-0.7-1.7-1.3-2.4-2.1c0.8-0.4,1.3,0.2,1.9,0.1
	c0.3-0.1,0.7,0.2,0.7-0.2c0.1-0.4-0.3-0.3-0.5-0.4c-0.2-0.1-0.4-0.2-0.2-0.6c0.8-1,0.7-2.1-0.2-3.1c-0.7-0.8-1.4-1.6-2.2-2.2
	c-0.6-0.5-1.3-0.7-2-1.2c-0.3-0.2-0.6-0.3-0.6-0.7C4,8,2.7,5.8,1.2,3.7C0.6,2.9,0.9,1.7,0.1,1c-0.2-0.2,0.1-0.4,0.3-0.4
	C2.5,0.3,4.6,0,6.8,0C6.9,0,7,0,7,0c1,1.5,2.8,1.4,4.2,2c2.3,1,4.8,1.7,7.2,2.6c0.9,0.3,1.8,0.5,2.7,0.5c2.5,0,4.9,0,7.4,0
	c0.7,0,1.1-0.1,1-0.9c-0.1-0.7,0.2-1,0.9-0.9c0.1,0,0.1,0,0.2,0c2.9-0.4,5.5,0.2,7.3,2.8c0.3,0.4,0.9,0.7,1.4,1
	c0.9,0.6,1.4,1.5,1.5,2.6c0.1,1.6,1.4,2.4,2.7,3.1c0.5,0.3,1,0.5,1.5,0.7c1.1,0.5,1.5,0.4,2-0.7c0.2-0.4,0.5-0.9,0.6-1.4
	c0.1-0.5,0.4-0.7,0.9-0.8c1.3-0.2,2.6-0.2,3.7,0.8c1,0.8,1.9,1.7,2.3,3c0.5,1.4,1.4,2.5,2.3,3.7c0.2,0.3,0.4,0.6,0.8,0.7
	c0.5,0.2,0.6,0.6,0.6,1c0,0.7,0.3,1.3,0.5,1.9c0.7,2.2,2.8,2.4,4.5,3.1c0.5,0.2,1.1,0.2,1.6,0.2c1,0.1,1.2,0.4,0.7,1.2
	c-1.2,2.2-1.6,4.5-1.7,6.9c0,0.9,0.2,1.8-0.1,2.6c-0.5,1.3-0.1,2.5,0.2,3.7c0.4,1.6,1.2,3.2,2.2,4.5c1.5,1.9,2.7,3.9,3.8,6
	c0.3,0.6,0.8,0.9,1.5,0.8c1.2-0.1,2.2,0.2,2.7,1.4c0.2,0.3,0.4,0.6,0.8,0.5c1-0.2,2.1-0.1,3-0.8c0.3-0.2,0.6-0.2,0.9-0.2
	c1,0.1,2,0.2,2.7-0.7c0.3-0.3,0.8-0.2,1.2-0.3c0.6-0.2,0.7,0.3,0.7,0.7c0,0.1,0.1,0.2,0.2,0.3c0.7,0.2,2.3-0.8,2.2-1.5
	c-0.1-0.5,0.1-0.6,0.5-0.8c0.6-0.4,1-0.9,1.3-1.6c0.6-1.3,0.6-2.6,0.7-3.9c0.1-1,0.7-1.8,1.8-2c0.4-0.1,0.8-0.2,1.2-0.3
	c1.2-0.1,2.3-0.3,3.5-0.8c1-0.4,2-0.2,2.9,0.1c0.5,0.2,0.9,0.3,1.4,0c0.7-0.4,1,0,1.1,0.6c0.2,0.9-0.1,1.8-0.7,2.3
	c-1.5,1.1-1.7,2.7-1.7,4.3c0,1.1-0.4,2.1-0.6,3.2c-0.1,0.2-0.1,0.5-0.4,0.5c-0.3,0-0.4-0.3-0.4-0.6c0,0,0-0.1,0-0.1
	c0-0.3,0.2-0.8-0.2-0.9c-0.4-0.1-0.5,0.5-0.8,0.7c-1.4,1.2-2.5,3-4.9,2.7c-1.2-0.2-2.4,0-3.6,0c-0.4,0-0.8,0-0.7,0.6
	C86.5,55.3,85.8,55.6,84.4,55.3"/>
<path class="st0" d="M15.2,13.4c-0.1,0.2,0.1,0.7-0.4,0.6c-0.3,0-0.5-0.3-0.4-0.6c0.1-0.3,0-0.8,0.4-0.8
	C15.3,12.7,15.2,13.1,15.2,13.4"/>
<path class="st0" d="M12,12.9c-0.6-0.4-1-0.8-1.1-1.5C11.5,11.7,11.8,12.2,12,12.9"/>
<path class="st0" d="M67.7,14.8L67.7,14.8C67.7,14.8,67.7,14.8,67.7,14.8L67.7,14.8z"/>
<path class="st0" d="M108.2,38.2c1.1-2,2.7-2.6,4.6-2.7c3-0.1,6,0.2,8.7,1.6c2.5,1.3,5.3,1.5,7.8,2.7c0.4,0.2,1,0.2,1.3,1
	c-1.6,0.5-3.2,1-4.8,1.4c-0.9,0.2-2.4,0.7-1.5-1.3c0.1-0.3,0.1-0.7-0.2-0.7c-3.1-0.1-5.4-3.3-8.7-2.4c-1.4,0.4-1.9-2.1-3.3-0.7
	C111,38,109.7,37.9,108.2,38.2"/>
<path class="st0" d="M124.1,44.9c1.1-0.3,2,0,2.4,1c0.2,0.5-0.6,1-1.2,0.9c-1-0.2-2.5,0-2.9-1C122.1,45,123.4,45.1,124.1,44.9"/>
<path class="st0" d="M121.2,30c0.4,0,0.7,0.4,0.8,0.7c0.2,0.9,1.1,1.6,0.6,2.6c-0.2,0.3-0.5,0-0.8-0.2
	C120.9,32.5,120.7,31.2,121.2,30"/>
<path class="st0" d="M147.7,43.3c0.3-2.3,1.9-1.6,3.1-1.7c0.3,0,0.5,0.4,0.4,0.7c-0.1,0.2-0.3,0.6-0.5,0.6
	C149.7,43.1,148.7,43.2,147.7,43.3"/>
<path class="st0" d="M137.4,40.9c0,0-0.1,0-0.1,0l0,0.2c0.1,0.3,0.3,0.4,0.4,0.5c0.1,0.1,0,0.6,0,0.6s0.1,0.9,0.2,1.2
	c0.3,0.5,0.1,1.7,0.8,1.1c0.7-0.5,1.7-0.8,2.9-0.9c0.3,0,0.8,0.2,1.1,0.2c1.5-0.1,3,0,1.7-0.8c-0.7-0.4-1.3-1.5-1.5-2
	c-0.2-0.5-1.3-1.2-3-0.6C139.3,40.6,138.2,40.8,137.4,40.9"/>
<path class="st0" d="M135.7,40.8c-0.9-0.1-2-0.4-2.5,0.5c-0.6,1,0.9,1.3,1.3,2c-0.8,0.6-1.6,1.2-2.4,1.8c2.4,1.4,4.9,1.1,5.4-0.8
	c0.1-0.3-0.4-0.7-0.4-1c0,0,0-1.2-0.1-1.6c-0.1-0.2-0.4-0.6-0.4-0.6c0-0.1-0.1-0.1-0.1-0.2C136.2,40.9,136,40.8,135.7,40.8"/>
</svg>
